<?xml version="1.0" standalone="no"?>
<!DOCTYPE svg PUBLIC "-//W3C//DTD SVG 20010904//EN"
 "http://www.w3.org/TR/2001/REC-SVG-20010904/DTD/svg10.dtd">
<svg version="1.0" xmlns="http://www.w3.org/2000/svg"
 width="432.000000pt" height="263.000000pt" viewBox="0 0 432.000000 263.000000"
 preserveAspectRatio="xMidYMid meet">

<g transform="translate(0.000000,263.000000) scale(0.100000,-0.100000)"
fill="#000000" stroke="none">
<path d="M2992 2423 c-54 -41 -106 -102 -224 -263 -43 -58 -82 -111 -88 -117
-6 -8 -34 -13 -64 -13 -29 0 -124 -7 -212 -15 -260 -23 -622 -54 -724 -61
l-95 -6 41 38 c57 54 156 207 188 290 43 113 31 174 -34 174 -41 0 -80 -17
-80 -35 0 -8 -4 -15 -9 -15 -5 0 -12 -9 -16 -19 -3 -10 -17 -22 -30 -25 -40
-10 -206 -183 -293 -305 -105 -146 -88 -135 -186 -128 -150 11 -307 61 -394
127 -50 38 -92 52 -92 30 0 -6 8 -25 17 -43 13 -25 18 -28 21 -14 5 26 26 21
50 -13 26 -35 93 -71 175 -95 59 -17 76 -35 33 -35 -14 0 -46 -4 -73 -10 -26
-5 -115 -19 -198 -30 -194 -28 -195 -28 -195 -43 0 -7 10 -24 23 -37 l22 -25
3 22 c4 24 13 27 123 37 78 8 85 -5 93 -159 10 -180 14 -197 39 -193 18 2 23
12 28 48 9 57 -8 205 -27 247 -12 26 -19 73 -11 73 1 0 70 9 152 20 223 30
255 33 255 27 0 -7 -104 -176 -128 -207 -10 -14 -41 -61 -67 -105 -61 -103
-73 -115 -104 -115 -14 0 -32 -4 -40 -9 -17 -11 -7 -41 14 -41 22 0 19 -11
-24 -82 -44 -73 -194 -370 -206 -408 -4 -14 -13 -32 -20 -40 -7 -8 -15 -31
-18 -50 -2 -19 -16 -73 -31 -120 -15 -47 -33 -114 -39 -150 -15 -78 -34 -89
-61 -34 -36 77 -112 153 -260 259 -30 22 -55 45 -56 51 0 16 -31 27 -43 15
-14 -14 0 -29 106 -109 236 -178 283 -285 262 -595 -3 -54 -1 -69 11 -74 27
-10 33 9 43 137 14 173 54 402 88 506 25 76 32 89 59 100 17 7 40 10 52 7 12
-3 173 4 359 16 186 11 448 25 582 31 134 6 279 14 323 17 l80 6 -9 -74 c-10
-96 -8 -131 10 -166 22 -42 55 -57 92 -42 l30 13 -32 4 c-50 5 -58 24 -57 126
1 50 7 103 13 119 10 27 11 27 109 27 55 0 155 4 223 10 242 18 359 21 365 7
2 -7 -3 -33 -12 -57 -21 -60 -39 -131 -54 -215 -7 -38 -16 -85 -21 -104 -9
-37 -5 -51 15 -51 14 0 38 77 81 255 30 128 41 159 63 177 11 10 115 14 441
18 360 4 426 7 426 19 0 8 -13 18 -30 23 -41 11 -275 17 -275 6 0 -4 -124 -8
-275 -8 -151 0 -275 4 -275 8 0 10 43 116 76 190 l24 52 20 -20 c29 -29 54
-25 94 16 62 63 152 235 291 554 18 41 56 121 84 177 109 218 117 386 10 213
-24 -39 -48 -77 -54 -85 -8 -12 -33 -14 -155 -7 l-145 7 -3 30 c-3 36 -37 212
-59 308 -13 59 -18 67 -38 67 -13 0 -45 -17 -73 -37z m78 -40 c6 -21 15 -65
20 -98 4 -33 15 -96 23 -140 9 -44 13 -83 9 -87 -10 -10 -373 -24 -379 -15 -2
4 9 27 27 50 17 23 62 86 100 141 73 102 151 186 175 186 8 0 19 -17 25 -37z
m-1272 -15 c3 -36 -22 -98 -76 -188 -12 -19 -29 -51 -39 -70 -9 -19 -28 -43
-40 -53 -13 -10 -29 -24 -36 -30 -25 -23 -92 -74 -113 -85 -32 -17 -178 -28
-173 -13 11 33 248 322 316 384 60 55 124 98 143 95 9 -2 16 -17 18 -40z
m1325 -403 c-5 -86 -37 -149 -170 -341 -29 -41 -53 -82 -53 -90 0 -8 -3 -14
-7 -14 -5 0 -30 -33 -57 -74 -27 -41 -60 -79 -73 -85 -13 -6 -29 -15 -36 -21
-7 -6 -25 -20 -40 -31 -16 -12 -39 -39 -52 -60 -30 -47 -96 -87 -157 -95 -45
-6 -47 -5 -63 27 -14 25 -16 47 -12 96 5 54 4 65 -10 70 -9 4 -19 1 -21 -5 -5
-17 -32 -15 -32 3 0 9 20 56 45 106 47 93 70 114 125 110 14 -1 55 6 92 15 72
17 122 52 112 78 -6 16 -75 61 -126 84 -16 6 -28 16 -28 20 0 12 115 202 133
219 12 12 269 31 382 29 l50 -2 -2 -39z m290 25 c12 -11 -17 -73 -70 -155 -26
-38 -58 -88 -72 -110 -14 -22 -27 -42 -28 -44 -2 -3 -25 -8 -51 -12 -66 -11
-144 -28 -150 -34 -2 -2 -2 -12 2 -21 5 -14 17 -16 71 -12 85 7 85 0 -7 -138
-40 -59 -80 -118 -88 -130 -18 -29 -53 -33 -43 -6 4 9 13 27 21 39 8 13 12 30
8 38 -9 24 -35 17 -49 -12 -6 -16 -15 -30 -19 -33 -4 -3 -14 -22 -23 -42 -15
-36 -50 -66 -63 -53 -4 3 6 30 22 59 27 50 30 86 7 86 -11 0 -41 -56 -41 -77
0 -7 -9 -21 -20 -30 -11 -10 -20 -22 -20 -27 0 -18 -56 -56 -84 -56 -31 0 -30
2 21 59 12 14 20 28 17 33 -3 4 4 8 15 8 12 0 22 7 22 15 3 32 19 66 29 60 10
-6 39 28 86 100 21 33 60 90 86 126 26 37 48 70 48 74 0 5 12 24 26 43 43 56
83 148 90 206 6 50 9 55 33 58 45 5 216 -4 224 -12z m-779 -21 c-1 -15 -122
-209 -130 -209 -2 0 -45 11 -96 24 -51 13 -114 27 -140 31 -37 6 -48 11 -48
26 0 10 5 21 10 24 15 9 12 45 -3 45 -8 0 -28 -17 -45 -38 l-30 -39 -59 9
c-141 21 -297 54 -300 64 -3 10 66 18 442 49 105 9 226 20 270 24 108 11 130
10 129 -10z m-962 -83 c18 -8 67 -20 108 -26 217 -36 319 -56 326 -62 4 -4
-13 -29 -37 -56 -93 -102 -152 -172 -170 -201 -10 -17 -24 -31 -31 -31 -7 0
-53 -5 -103 -10 -364 -39 -573 -61 -654 -71 -53 -6 -97 -7 -102 -2 -5 5 17 52
51 107 33 54 60 103 60 107 0 5 4 9 9 9 5 0 34 43 65 95 31 52 66 101 78 110
14 9 46 15 83 16 33 0 85 7 115 14 76 17 163 18 202 1z m625 -116 c99 -19 162
-37 176 -50 7 -6 -45 -115 -67 -136 -6 -6 -58 -16 -116 -23 -58 -6 -143 -16
-188 -22 -46 -6 -86 -8 -89 -6 -2 3 11 30 31 61 19 30 44 73 55 95 19 37 78
101 93 101 3 0 51 -9 105 -20z m1086 -7 c-3 -16 -28 -75 -55 -133 -27 -58 -53
-114 -57 -125 -16 -38 -90 -183 -109 -215 -19 -31 -70 -66 -80 -55 -20 20 20
127 80 216 14 19 40 63 58 98 18 34 44 71 57 81 13 10 23 23 23 30 0 23 63
130 77 130 10 0 12 -7 6 -27z m-778 -74 c32 -14 57 -37 51 -48 -3 -5 -20 -12
-36 -16 -17 -4 -36 -13 -43 -20 -8 -7 -36 -15 -63 -17 -58 -4 -61 6 -19 77 25
43 29 46 58 39 18 -3 41 -10 52 -15z m-238 -186 c-7 -16 -27 -55 -43 -88 -16
-33 -33 -62 -38 -64 -5 -2 -41 -37 -80 -77 -60 -63 -76 -74 -104 -74 -30 0
-32 2 -26 28 4 15 20 42 36 61 19 22 26 37 20 43 -15 15 -46 1 -64 -29 -22
-38 -115 -133 -130 -133 -6 0 -20 -7 -30 -16 -14 -13 -21 -14 -32 -5 -12 10
-12 18 -1 56 8 24 11 53 8 65 -5 19 -3 21 14 16 34 -11 48 46 18 70 -12 9 -9
20 18 64 17 29 39 57 47 61 26 13 262 47 333 48 l68 1 -14 -27z m-532 -45 c6
-6 -43 -102 -77 -150 -10 -14 -18 -33 -18 -41 0 -7 -9 -25 -21 -38 -11 -13
-28 -37 -36 -54 -15 -29 -70 -84 -85 -85 -5 0 -8 15 -8 34 0 20 19 70 50 129
54 104 60 127 32 127 -23 0 -42 -19 -42 -41 0 -10 -3 -19 -7 -21 -5 -1 -20
-25 -35 -53 -15 -27 -34 -51 -42 -53 -23 -5 -20 17 9 63 26 42 32 80 15 90
-17 10 -36 -11 -84 -95 -72 -125 -150 -162 -111 -53 50 137 56 158 51 179 -6
21 -2 23 46 29 354 44 352 44 363 33z m-445 -47 c0 -6 -4 -13 -10 -16 -5 -3
-10 -13 -10 -20 0 -8 -13 -43 -28 -77 -16 -35 -32 -75 -35 -89 -9 -36 -39 -71
-81 -93 -29 -15 -38 -17 -51 -6 -8 7 -15 21 -15 32 0 19 64 146 96 193 19 27
17 45 -4 45 -14 0 -82 -85 -82 -103 0 -16 -75 -124 -93 -134 -52 -29 -49 -9
13 117 27 55 47 107 44 115 -4 10 9 15 53 20 32 4 81 10 108 15 72 11 95 11
95 1z m-300 -35 c0 -4 -93 -187 -118 -231 -12 -22 -73 -65 -92 -65 -5 0 -16
13 -25 29 -14 27 -13 33 9 84 14 30 36 64 50 75 17 13 26 30 26 48 0 46 25 64
92 64 32 0 58 -2 58 -4z m1263 -149 c-11 -70 54 -135 122 -123 17 4 57 19 88
35 44 23 66 28 96 24 34 -5 43 -1 80 32 l42 38 22 -22 c28 -26 40 -26 74 -4
26 17 93 26 93 13 0 -7 -27 -74 -50 -125 -5 -11 -19 -47 -31 -80 -12 -33 -24
-63 -28 -67 -3 -3 -69 -9 -146 -13 -77 -4 -153 -8 -170 -10 -35 -5 -219 -14
-320 -17 -58 -2 -70 0 -73 14 -2 9 16 67 40 129 34 89 53 123 89 161 55 58 80
63 72 15z m-153 -36 c0 -5 -12 -35 -26 -67 -28 -64 -46 -116 -63 -180 l-11
-41 -87 -6 c-48 -4 -191 -11 -317 -17 -268 -12 -655 -31 -806 -39 -58 -3 -124
-4 -147 -2 -37 2 -43 6 -43 25 0 35 87 206 105 206 8 0 15 -4 15 -10 0 -5 10
-14 21 -21 30 -15 92 4 117 36 23 29 37 32 46 10 8 -21 43 -19 74 5 l25 20 27
-31 c24 -29 30 -32 65 -26 23 4 51 18 70 37 35 34 47 37 65 15 19 -22 57 -18
95 11 21 15 36 21 40 15 3 -6 19 -11 36 -11 22 0 29 -5 29 -19 0 -27 38 -71
61 -71 11 0 43 23 71 51 27 27 52 48 55 46 2 -3 -3 -28 -12 -55 -9 -28 -18
-66 -18 -84 -2 -27 2 -33 18 -33 14 0 22 10 28 35 25 96 51 171 63 181 11 9
14 7 14 -13 0 -36 27 -68 58 -68 36 0 89 34 110 70 20 36 34 38 47 8 13 -31
72 -37 100 -10 37 34 75 51 75 33z"/>
<path d="M582 1680 c0 -14 2 -19 5 -12 2 6 2 18 0 25 -3 6 -5 1 -5 -13z"/>
<path d="M509 1643 c-1 -1 -2 -6 -3 -10 -1 -5 -5 -14 -9 -20 -5 -7 -4 -20 1
-29 8 -14 10 -12 16 10 3 14 10 26 14 26 5 0 16 6 26 13 17 12 16 14 -13 14
-17 0 -32 -2 -32 -4z"/>
</g>
</svg>
