<?xml version="1.0" standalone="no"?>
<!DOCTYPE svg PUBLIC "-//W3C//DTD SVG 20010904//EN"
 "http://www.w3.org/TR/2001/REC-SVG-20010904/DTD/svg10.dtd">
<svg version="1.0" xmlns="http://www.w3.org/2000/svg"
 width="960.000000pt" height="1429.000000pt" viewBox="0 0 960.000000 1429.000000"
 preserveAspectRatio="xMidYMid meet">

<g transform="translate(0.000000,1429.000000) scale(0.100000,-0.100000)"
fill="#000000" stroke="none">
<path d="M0 13210 l0 -1080 120 0 120 0 0 -30 c0 -38 12 -38 44 1 l27 31 164
-7 165 -7 0 31 c0 30 2 31 40 31 28 0 40 4 40 14 0 10 22 16 80 21 44 4 80 11
80 16 0 5 105 9 240 9 153 0 240 4 240 10 0 6 87 10 240 10 194 0 240 3 240
13 0 15 151 27 322 27 65 0 78 3 78 16 0 14 10 15 80 9 56 -5 80 -4 80 4 0 8
82 11 280 11 242 0 280 2 280 15 0 23 20 18 42 -11 11 -14 26 -23 34 -20 7 3
16 1 19 -4 9 -14 -16 -110 -28 -110 -7 0 -22 -20 -33 -43 -12 -23 -25 -42 -30
-41 -5 1 -22 -17 -39 -40 -16 -23 -33 -42 -37 -44 -5 -2 -8 -10 -8 -18 0 -8
-6 -14 -12 -14 -15 0 -98 -93 -98 -109 0 -6 -4 -11 -8 -11 -16 0 -69 -125
-111 -265 -35 -115 -38 -303 -7 -480 23 -129 23 -367 0 -480 -9 -44 -18 -143
-21 -220 -4 -132 -2 -146 27 -255 17 -63 36 -133 42 -155 5 -22 16 -53 23 -70
7 -16 23 -58 34 -93 12 -34 35 -97 52 -139 17 -43 29 -90 27 -107 -3 -29 -6
-31 -54 -37 -148 -18 -250 -113 -284 -264 -12 -51 -1 -196 21 -290 13 -56 52
-135 66 -135 7 0 20 -9 30 -19 10 -10 27 -21 38 -24 18 -4 18 -5 -2 -6 -14 -1
-23 -7 -23 -17 0 -8 5 -12 10 -9 6 4 10 -6 10 -23 0 -17 6 -32 13 -35 6 -2 18
-22 26 -43 13 -39 79 -146 94 -152 4 -2 13 -9 20 -16 7 -7 17 -11 24 -9 6 2
14 -1 18 -6 3 -7 -3 -11 -16 -11 -16 0 -19 -3 -11 -13 6 -7 13 -25 16 -39 2
-15 21 -66 40 -115 48 -118 85 -151 219 -198 58 -20 68 -35 97 -145 12 -47 26
-94 31 -105 5 -11 18 -48 30 -83 11 -35 31 -88 45 -117 13 -30 24 -61 24 -69
0 -19 -29 -47 -120 -116 -40 -30 -95 -72 -122 -93 -46 -36 -188 -214 -188
-236 0 -5 -4 -11 -9 -13 -11 -4 -84 -127 -126 -213 -17 -33 -34 -65 -40 -72
-5 -7 -30 -41 -55 -74 -70 -96 -110 -133 -175 -163 -33 -15 -91 -47 -130 -70
-38 -24 -124 -74 -190 -111 -66 -38 -148 -86 -183 -108 -81 -50 -136 -71 -247
-91 -173 -31 -279 -57 -345 -83 -8 -3 -19 -7 -25 -9 -5 -1 -35 -11 -65 -22
-48 -18 -152 -41 -295 -68 -50 -9 -52 -9 -100 -22 -36 -10 -101 -23 -260 -52
-113 -21 -203 -46 -270 -75 -16 -8 -65 -25 -109 -40 -43 -15 -109 -41 -145
-60 -36 -18 -76 -36 -88 -40 l-23 -6 0 -2905 0 -2904 4800 0 4800 0 0 2834 0
2835 -47 5 c-98 12 -172 36 -293 95 -139 69 -261 104 -462 132 -43 6 -92 15
-110 20 -64 19 -263 71 -303 79 -37 8 -129 38 -180 60 -11 5 -74 30 -140 55
-66 26 -140 56 -164 67 -24 11 -76 30 -116 43 -85 27 -108 38 -155 77 -51 42
-54 44 -81 58 -13 7 -26 16 -29 20 -7 9 -90 40 -255 96 -92 32 -149 57 -165
74 -18 17 -39 68 -69 160 -45 144 -167 404 -256 550 -78 127 -105 185 -105
225 0 23 25 93 70 193 39 86 79 184 89 217 40 130 70 242 76 281 6 42 20 82
50 149 10 24 22 90 29 165 10 109 15 130 39 165 33 48 34 71 5 79 -13 3 -33
21 -46 39 -20 31 -23 47 -24 158 -1 129 3 161 23 185 16 19 32 18 62 -6 14
-11 40 -20 58 -20 38 0 99 38 99 62 0 9 5 18 10 20 35 11 62 215 41 296 -15
55 -74 122 -108 122 -52 0 -67 116 -24 194 10 17 26 65 36 106 23 96 41 154
67 210 46 100 58 144 94 335 19 98 24 148 19 205 -16 216 -16 289 -1 402 12
93 13 140 5 230 -10 125 -27 230 -41 268 -12 33 -53 251 -68 365 -6 50 -15
108 -20 130 -5 22 -12 67 -15 100 -3 36 -11 64 -20 71 -10 7 -17 37 -21 87 -5
57 -11 77 -23 81 -9 3 13 3 48 1 35 -3 90 -5 122 -5 46 0 59 -3 59 -15 0 -12
16 -15 80 -15 47 0 80 -4 80 -10 0 -6 47 -10 120 -10 73 0 120 -4 120 -10 0
-5 18 -10 40 -10 33 0 40 -3 40 -20 0 -17 7 -20 40 -20 22 0 40 -4 40 -10 0
-6 33 -10 80 -10 64 0 80 -3 80 -15 0 -13 29 -15 200 -15 171 0 200 -2 200
-15 0 -12 16 -15 80 -15 79 0 80 0 80 -25 0 -22 4 -25 40 -25 29 0 40 4 40 15
0 19 76 21 82 3 4 -10 95 -14 401 -16 l397 -4 0 1081 0 1081 -4800 0 -4800 0
0 -1080z m5785 -1122 c28 -6 71 -12 97 -13 66 -4 118 -14 118 -25 0 -4 8 -6
18 -3 10 2 24 -3 31 -11 8 -9 20 -16 27 -16 8 0 46 -21 86 -47 94 -61 135 -83
152 -83 7 0 21 -12 30 -26 12 -17 25 -24 40 -22 16 2 44 -13 85 -45 33 -27 61
-52 61 -58 0 -5 21 -33 48 -62 26 -30 54 -63 63 -73 9 -10 37 -38 61 -61 56
-53 79 -115 92 -249 2 -17 7 -37 11 -44 5 -8 2 -17 -6 -24 -17 -14 -21 -38
-23 -146 -1 -68 3 -91 18 -112 10 -16 16 -34 13 -42 -3 -8 2 -36 13 -63 11
-30 18 -78 19 -130 1 -46 5 -93 10 -106 5 -12 9 -62 9 -110 -1 -53 4 -93 11
-100 16 -16 14 -62 -5 -78 -13 -11 -21 -5 -57 36 -23 27 -88 95 -145 152 -82
81 -110 104 -140 109 -20 4 -51 13 -68 20 -20 8 -56 12 -95 9 -78 -6 -142 2
-166 21 -16 12 -13 13 27 8 25 -4 42 -4 39 0 -8 8 -114 36 -140 36 -11 0 -29
9 -41 20 -28 26 -38 25 -35 -1 1 -12 -4 -24 -10 -26 -8 -3 -13 5 -13 22 0 26
-2 27 -50 23 -28 -1 -50 1 -50 5 0 4 -10 -1 -22 -13 -27 -25 -38 -25 -38 0 0
28 -6 25 -46 -16 -34 -37 -34 -37 -34 -11 0 36 -9 39 -58 17 -35 -16 -42 -17
-42 -5 0 10 -11 15 -34 15 -19 0 -38 5 -41 10 -9 14 -25 3 -25 -17 0 -8 -11
-24 -25 -35 -14 -11 -23 -23 -20 -28 3 -5 1 -11 -5 -15 -5 -3 -14 5 -20 19 -5
14 -14 26 -20 26 -11 0 -11 -2 -15 -37 -1 -13 -8 -30 -15 -38 -7 -8 -15 -34
-17 -57 -3 -23 -14 -57 -25 -76 -10 -19 -17 -41 -14 -48 3 -8 -4 -29 -14 -47
-19 -32 -19 -37 -5 -78 11 -30 13 -50 7 -64 -23 -50 -46 -192 -36 -226 3 -11
12 -15 30 -11 19 3 26 0 30 -15 10 -36 85 -67 109 -44 6 4 22 11 36 15 26 6
26 6 15 -34 -15 -57 0 -68 110 -82 49 -6 94 -17 100 -24 8 -10 14 -10 22 -2 8
8 21 6 49 -5 21 -8 60 -18 86 -22 26 -4 47 -11 47 -16 0 -12 -96 -11 -145 2
-66 17 -140 17 -140 -1 0 -17 185 -102 272 -125 73 -19 225 -19 278 -1 22 8
52 17 68 20 17 4 27 13 27 24 0 19 42 82 63 94 13 7 76 -10 161 -43 56 -22 66
-23 66 -8 0 17 32 38 57 39 12 0 23 5 25 10 4 13 116 32 140 24 10 -3 18 -11
18 -19 0 -7 6 -15 13 -18 14 -5 32 -68 54 -187 18 -101 18 -143 -1 -173 -8
-12 -19 -72 -25 -137 -12 -130 -23 -176 -40 -172 -7 1 -11 -17 -11 -52 0 -35
-5 -60 -15 -70 -9 -9 -15 -34 -15 -65 0 -40 -4 -54 -20 -63 -11 -7 -20 -18
-20 -25 0 -7 -4 -13 -8 -13 -5 0 -5 -28 0 -62 7 -50 5 -65 -5 -73 -9 -6 -17
-42 -22 -95 -10 -113 -9 -111 -40 -174 -14 -29 -25 -60 -24 -67 3 -17 -39 -89
-53 -89 -5 0 -7 -4 -4 -9 3 -4 -10 -22 -29 -40 -19 -17 -35 -36 -35 -41 0 -6
-9 -10 -19 -10 -11 0 -29 -14 -41 -30 -16 -22 -29 -30 -52 -30 -29 0 -30 -1
-23 -39 6 -36 5 -39 -22 -44 -23 -5 -33 -17 -54 -65 l-26 -59 -49 -1 -50 -2
-16 54 c-10 31 -15 68 -11 89 4 27 1 39 -17 55 -15 14 -21 28 -17 42 4 15 -4
33 -29 60 -26 29 -34 45 -32 70 3 28 -1 33 -37 46 -54 19 -64 18 -74 -8 -7
-21 -9 -19 -20 15 -9 27 -23 43 -50 57 -50 25 -67 46 -46 54 9 3 13 10 10 16
-9 15 -35 12 -35 -5 0 -22 -49 -30 -94 -14 -45 16 -60 39 -24 40 l23 0 -23 10
c-13 5 -35 18 -50 29 -15 12 -33 18 -44 15 -10 -4 -27 -3 -39 0 -16 5 -19 12
-14 34 6 28 -15 62 -46 73 -9 4 -19 16 -22 28 -4 16 1 23 19 31 36 13 41 12
58 -13 22 -31 32 -14 17 27 -10 28 -9 48 4 109 20 99 20 156 0 156 -9 0 -38
16 -66 35 -28 19 -60 35 -70 35 -10 0 -33 18 -50 40 -44 55 -72 54 -128 -5
-24 -25 -53 -46 -64 -47 -47 -3 -104 2 -144 13 -23 6 -47 9 -53 7 -7 -2 -35
20 -63 49 -40 40 -63 55 -99 64 -71 17 -98 7 -98 -35 0 -33 -2 -35 -64 -55
-47 -15 -71 -18 -88 -12 -13 6 -20 10 -16 10 4 1 0 10 -9 21 -27 31 -28 28
-64 -145 -15 -69 0 -194 26 -215 7 -6 39 -15 72 -21 41 -7 63 -17 72 -31 15
-25 -1 -50 -21 -30 -8 8 -18 5 -41 -14 -16 -14 -35 -23 -42 -20 -7 2 -21 -4
-31 -15 -9 -10 -25 -19 -34 -19 -10 0 -23 -6 -29 -14 -6 -7 -25 -16 -41 -20
-17 -3 -30 -12 -30 -20 0 -9 -16 -16 -45 -20 -25 -4 -45 -11 -45 -17 0 -15
-47 -10 -64 6 -18 19 -27 19 -62 0 -16 -8 -39 -15 -51 -15 -24 0 -31 -14 -13
-25 19 -12 10 -25 -18 -25 -16 0 -38 -9 -51 -21 -12 -12 -25 -18 -29 -14 -4 4
6 17 23 30 16 13 26 27 22 31 -8 8 -57 -22 -57 -36 0 -5 -26 -33 -57 -62 -31
-29 -65 -61 -75 -70 -10 -10 -18 -13 -18 -7 0 25 -18 -4 -24 -39 -6 -43 -28
-67 -51 -59 -8 4 -17 2 -20 -3 -7 -11 -45 20 -45 36 0 6 19 15 43 19 25 5 35
10 24 12 -11 3 -16 10 -13 20 5 11 1 13 -17 7 -40 -13 -71 -5 -97 25 -20 23
-31 29 -49 24 -22 -5 -23 -4 -16 25 5 25 2 33 -14 42 -12 6 -21 17 -21 25 0 7
-16 28 -35 46 -18 18 -32 36 -29 41 3 4 0 8 -7 8 -10 0 -10 3 -1 12 7 7 12 25
12 41 0 24 -3 27 -21 22 -18 -6 -20 -4 -14 14 3 11 -1 33 -9 50 -19 36 -21 78
-3 84 9 3 9 7 1 18 -6 8 -15 57 -19 109 -5 69 -11 97 -23 106 -11 8 -15 24
-14 48 2 20 -2 36 -8 36 -16 0 -12 18 5 22 11 2 12 7 4 18 -8 11 -12 12 -16 3
-3 -9 -10 -10 -24 -3 -27 15 -48 61 -42 93 4 17 1 27 -7 27 -8 0 -11 9 -8 25
3 14 1 25 -3 25 -5 0 -12 12 -15 26 -5 21 -11 24 -30 20 -18 -5 -26 -2 -31 11
-3 10 -17 31 -30 47 -23 28 -24 34 -17 114 4 57 15 103 31 139 22 47 28 53 55
53 21 0 31 6 35 19 3 11 21 23 46 31 23 7 61 22 85 33 39 18 44 18 55 3 11
-14 19 -14 86 11 l74 26 24 -28 c13 -15 22 -33 19 -41 -4 -9 4 -11 30 -7 23 4
34 2 34 -6 0 -27 86 -51 207 -57 116 -6 120 -5 223 29 58 20 128 46 156 59 53
25 115 71 114 85 0 11 -153 12 -167 1 -7 -6 -17 -7 -23 -3 -6 3 -26 1 -46 -5
-37 -12 -84 -7 -84 10 0 6 14 10 32 10 17 0 50 11 73 25 40 23 59 26 158 23
82 -2 143 3 157 12 12 7 12 16 3 52 -13 47 -10 57 10 39 8 -6 33 -10 55 -9 28
1 48 -5 62 -17 14 -12 34 -17 69 -17 41 1 50 -2 54 -18 3 -11 11 -20 17 -20 7
0 10 8 7 20 -3 10 1 24 8 30 15 13 25 69 13 76 -4 3 -8 36 -8 74 0 38 -4 71
-8 74 -4 2 -7 43 -6 90 2 70 -1 90 -16 108 -18 23 -18 82 1 103 5 5 9 22 9 38
0 26 -2 29 -26 23 -31 -8 -53 15 -54 56 0 15 -5 30 -10 33 -6 4 -10 14 -9 23
5 52 -16 58 -30 10 l-9 -33 -1 37 c-1 20 -5 40 -11 43 -5 3 -10 1 -10 -4 0 -6
-7 -11 -15 -11 -9 0 -14 8 -12 23 2 17 -4 23 -26 25 -19 2 -31 11 -37 28 -13
34 -24 30 -16 -6 7 -39 -7 -38 -32 1 -16 26 -20 28 -26 13 -3 -9 -3 -26 0 -38
5 -15 -2 -10 -22 14 -38 46 -55 59 -71 53 -7 -3 -26 0 -43 5 -35 13 -49 0 -28
-25 12 -15 11 -15 -9 -4 -13 6 -23 18 -23 26 0 8 -4 15 -10 15 -5 0 -10 -5
-10 -11 0 -12 -86 -7 -152 7 -21 5 -28 2 -28 -9 0 -8 13 -17 32 -21 17 -3 29
-9 26 -12 -3 -3 -38 6 -78 20 -65 23 -75 24 -99 12 -22 -13 -24 -15 -8 -21 9
-4 24 -5 32 -2 8 4 17 2 20 -3 6 -10 -53 -24 -82 -18 -10 2 -18 10 -18 18 0
24 -25 34 -43 17 -10 -9 -41 -19 -70 -23 -31 -4 -56 -13 -59 -20 -3 -8 -10
-14 -17 -14 -31 0 -86 -23 -86 -35 0 -8 -8 -15 -18 -15 -10 0 -29 -13 -44 -30
-14 -16 -35 -30 -47 -30 -11 0 -28 -11 -36 -24 -22 -33 -49 -43 -42 -17 3 11
-2 39 -10 63 -8 23 -12 52 -9 64 6 22 -14 74 -30 77 -5 1 -8 6 -6 10 4 14 -18
47 -31 44 -15 -3 -23 71 -9 85 15 15 2 158 -16 186 -9 14 -10 22 -3 22 20 0
11 27 -13 38 -23 10 -24 14 -20 89 2 43 7 89 10 103 8 35 52 90 72 90 9 0 39
24 65 54 29 33 70 65 102 81 30 14 55 33 55 41 0 7 11 16 25 20 13 3 27 13 30
23 4 14 27 28 78 45 11 3 21 15 24 26 3 11 10 20 15 20 6 0 8 -7 4 -15 -3 -8
-2 -15 3 -15 5 0 14 7 21 15 7 8 25 15 40 15 15 0 45 13 66 28 36 26 54 37
132 76 81 42 132 59 177 60 47 1 50 0 47 -23 -2 -19 1 -22 15 -16 18 8 251 13
258 6 2 -1 0 -14 -5 -27 -9 -21 -6 -26 26 -39 20 -8 45 -15 55 -15 11 0 19 -6
19 -12 0 -9 4 -8 11 2 9 12 11 13 16 1 25 -62 97 -67 209 -16 41 19 81 35 87
36 9 0 9 2 0 5 -9 4 -9 11 -1 29 6 14 15 22 20 19 4 -3 6 -10 3 -15 -4 -5 1
-9 10 -9 12 0 15 6 10 19 -8 27 51 94 76 86 13 -4 19 -1 19 9 0 12 10 16 35
16 20 0 38 6 41 13 3 10 37 14 127 15 112 2 155 6 213 17 12 3 24 14 27 24 4
18 11 19 63 15 33 -3 82 -10 109 -16z m215 -1334 c0 -9 -32 -33 -44 -34 -5 0
-1 9 9 20 18 20 35 26 35 14z m-2193 -30 c-3 -3 -12 -4 -19 -1 -8 3 -5 6 6 6
11 1 17 -2 13 -5z m323 -294 c107 -17 159 -39 206 -86 48 -46 55 -65 24 -57
-38 10 -20 -14 31 -41 28 -16 59 -42 70 -59 18 -30 18 -32 1 -38 -9 -4 -26 -2
-37 4 -55 29 -369 54 -478 37 -44 -6 -81 -10 -82 -8 -16 15 111 84 179 98 l41
8 -40 1 c-22 0 -71 -8 -110 -19 -38 -11 -74 -20 -79 -20 -17 0 26 39 61 55 51
25 32 30 -38 11 -89 -25 -104 -13 -77 61 10 27 19 34 47 39 20 3 50 10 66 14
43 12 140 11 215 0z m2249 -68 c72 -36 80 -51 50 -86 -13 -15 -32 -26 -44 -25
-11 1 -28 -1 -37 -5 -9 -4 -54 2 -100 13 -46 11 -110 23 -143 25 -33 3 -49 3
-35 0 14 -3 34 -9 45 -14 11 -5 51 -22 89 -38 40 -18 89 -49 117 -75 67 -63
66 -81 -2 -53 -19 7 -43 17 -54 21 -11 5 -26 7 -33 6 -7 -1 -11 3 -10 10 2 9
-51 12 -225 11 -125 -1 -232 -4 -237 -7 -5 -3 -12 -1 -15 5 -22 36 105 115
219 135 l71 13 -55 2 c-53 1 -118 18 -77 19 9 1 17 5 17 10 0 12 84 42 144 51
28 4 98 8 156 9 96 1 110 -2 159 -27z m-1978 -352 c27 -15 24 -26 -12 -39 -18
-6 -34 -11 -35 -11 -9 0 -3 37 8 48 15 15 15 15 39 2z m1383 -26 c6 -17 8 -64
3 -64 -12 0 -67 33 -67 40 0 9 39 40 51 40 4 0 10 -7 13 -16z m-2892 -1116
c32 -49 55 -219 26 -190 -7 7 -20 12 -29 12 -38 0 -72 125 -51 188 7 20 39 14
54 -10z m2598 -158 c22 -22 17 -45 -13 -61 -17 -10 -19 -9 -14 4 4 10 -3 23
-18 36 -14 10 -25 24 -25 30 0 18 49 12 70 -9z m-75 -20 c3 -5 -1 -10 -10 -10
-9 0 -13 5 -10 10 3 6 8 10 10 10 2 0 7 -4 10 -10z m-99 -37 c-11 -11 -19 6
-11 24 8 17 8 17 12 0 3 -10 2 -21 -1 -24z m254 -33 c0 -5 -4 -10 -10 -10 -5
0 -10 5 -10 10 0 6 5 10 10 10 6 0 10 -4 10 -10z m-590 -22 c0 -24 -15 -37
-30 -28 -11 7 -11 11 -1 24 16 19 31 21 31 4z m168 -10 c17 -17 15 -38 -7 -83
l-18 -38 -5 34 c-6 38 1 99 11 99 4 0 12 -5 19 -12z m186 -4 c3 -9 6 -24 6
-35 0 -11 11 -24 25 -31 14 -6 25 -15 25 -19 0 -16 -96 23 -112 46 -7 9 28 55
43 55 4 0 10 -7 13 -16z m-372 -61 c2 -18 -5 -40 -20 -59 l-22 -31 32 -13 c18
-7 47 -19 65 -26 40 -18 58 -18 73 1 8 9 21 13 34 10 30 -9 70 -28 77 -39 16
-21 113 72 103 99 -13 33 31 13 78 -35 39 -39 56 -50 81 -50 42 0 103 -42 109
-75 3 -14 2 -25 -1 -25 -4 0 -45 11 -91 24 l-83 25 -81 -19 c-168 -39 -183
-40 -286 -14 -119 29 -179 58 -180 87 0 4 7 7 15 7 8 0 17 12 21 28 3 15 11
43 19 62 7 19 16 43 19 53 9 27 34 20 38 -10z m-163 -107 c20 -23 3 -63 -31
-75 -42 -15 -78 -14 -78 2 0 23 31 57 51 57 11 0 22 7 25 15 8 19 18 19 33 1z
m831 -151 c0 -12 -29 -3 -34 10 -4 13 -2 14 14 5 11 -6 20 -13 20 -15z m47
-17 c-3 -8 -6 -5 -6 6 -1 11 2 17 5 13 3 -3 4 -12 1 -19z m-686 -178 c30 -6
117 -13 194 -16 129 -5 172 -14 160 -34 -3 -5 -19 -8 -35 -8 -33 1 -60 -17
-60 -39 0 -11 -5 -13 -17 -8 -10 4 -45 9 -78 10 -80 4 -152 11 -257 26 -71 10
-88 16 -88 30 0 12 -7 15 -27 11 l-28 -5 24 22 c19 17 37 21 91 21 37 0 92 -5
121 -10z m-311 -60 c0 -5 -9 -10 -20 -10 -11 0 -20 5 -20 10 0 6 9 10 20 10
11 0 20 -4 20 -10z m803 -31 c20 -17 37 -39 37 -50 0 -10 5 -19 10 -19 18 0
11 -18 -10 -25 -11 -4 -34 1 -52 9 -17 9 -37 16 -43 16 -7 0 -18 6 -24 14 -10
12 -8 16 11 22 13 4 26 7 31 6 14 -4 7 16 -8 22 -18 7 -20 36 -2 36 7 0 29
-14 50 -31z m-1275 -93 c-7 -8 -15 -12 -17 -11 -5 6 10 25 20 25 5 0 4 -6 -3
-14z m1640 -125 c3 -8 0 -11 -6 -7 -6 4 -16 -3 -22 -15 -9 -17 -8 -23 6 -34
17 -12 16 -13 -4 -19 -24 -8 -48 -44 -36 -54 4 -4 9 -1 11 6 10 26 23 10 23
-28 0 -36 -3 -40 -24 -40 -16 0 -27 -7 -31 -20 -3 -11 -13 -20 -21 -20 -16 0
-19 -26 -4 -35 15 -9 12 -51 -5 -65 -8 -7 -13 -16 -10 -20 3 -4 -5 -10 -17
-13 -19 -5 -20 -8 -8 -23 12 -14 12 -18 -5 -30 -10 -8 -25 -14 -32 -14 -7 0
-13 -8 -13 -19 0 -26 -22 -42 -40 -31 -24 15 -31 11 -18 -9 6 -11 18 -17 27
-14 9 3 -4 -9 -29 -26 -50 -34 -70 -39 -70 -16 0 9 -6 15 -12 14 -32 -4 -56 3
-76 21 -12 11 -33 20 -48 20 -14 0 -44 14 -65 31 -22 17 -51 34 -67 38 -24 7
-27 12 -24 43 2 20 -1 39 -7 43 -18 10 -14 48 4 41 9 -3 23 -2 33 3 9 5 53 17
97 26 49 11 85 25 92 35 7 10 24 21 38 24 14 4 23 11 20 15 -3 5 17 17 45 26
27 9 50 20 50 25 0 5 15 10 33 12 26 2 33 8 35 30 3 23 8 27 40 30 29 2 36 7
34 21 -4 26 15 46 38 40 14 -4 20 0 20 12 0 20 41 17 48 -4z m-1643 -51 c3
-39 -12 -48 -26 -16 -9 19 -8 28 2 39 17 19 21 15 24 -23z m115 -69 c0 -5 18
-11 40 -15 22 -3 40 -10 40 -15 0 -5 18 -11 40 -15 22 -3 40 -11 40 -16 0 -19
38 -10 43 10 7 27 31 25 51 -5 11 -17 26 -25 45 -25 42 0 61 -10 61 -31 0 -12
7 -19 19 -19 26 0 30 -18 14 -59 -8 -18 -12 -40 -8 -49 4 -12 13 -5 35 29 17
24 30 49 30 55 0 6 6 17 14 23 22 19 42 -23 27 -56 -6 -13 -11 -37 -11 -54 0
-29 -1 -29 -52 -28 -43 2 -54 -1 -66 -19 -16 -25 -52 -30 -52 -8 0 21 -19 30
-34 17 -7 -6 -20 -9 -29 -6 -8 4 -31 -1 -51 -9 -33 -14 -37 -14 -50 5 -13 20
-14 20 -34 -5 -11 -14 -32 -30 -46 -36 -37 -14 -93 10 -98 41 -2 15 -12 25
-27 29 -30 7 -51 57 -30 71 11 8 10 12 -5 24 -11 8 -26 15 -33 15 -18 0 -16
19 3 27 8 3 20 16 25 29 4 13 15 24 23 24 9 0 17 15 21 40 6 34 11 40 31 40
13 0 24 -4 24 -9z m620 -212 c0 -24 -4 -38 -10 -34 -17 10 -11 75 7 75 2 0 3
-18 3 -41z m166 10 c11 9 25 16 32 13 16 -5 15 -64 -2 -87 -13 -18 -14 -17
-31 8 -21 33 -36 26 -28 -13 6 -33 1 -35 -44 -19 -42 14 -53 62 -22 95 22 23
22 23 49 4 26 -19 28 -19 46 -1z m-176 -76 c0 -5 -5 -15 -10 -23 -9 -13 -11
-13 -19 0 -5 8 -7 18 -5 22 6 10 34 11 34 1z m-400 -63 c0 -5 -7 -10 -16 -10
-8 0 -12 5 -9 10 3 6 10 10 16 10 5 0 9 -4 9 -10z"/>
<path d="M4825 10650 c3 -5 8 -10 11 -10 2 0 4 5 4 10 0 6 -5 10 -11 10 -5 0
-7 -4 -4 -10z"/>
<path d="M5469 9399 c-8 -16 -8 -28 0 -45 17 -38 31 -28 31 21 0 48 -12 58
-31 24z"/>
<path d="M3410 9186 c0 -9 7 -16 16 -16 17 0 14 22 -4 28 -7 2 -12 -3 -12 -12z"/>
<path d="M3426 9151 c-4 -7 -5 -15 -2 -18 9 -9 19 4 14 18 -4 11 -6 11 -12 0z"/>
<path d="M6000 8420 c0 -5 5 -10 11 -10 5 0 7 5 4 10 -3 6 -8 10 -11 10 -2 0
-4 -4 -4 -10z"/>
<path d="M3660 8360 c0 -5 5 -10 10 -10 6 0 10 5 10 10 0 6 -4 10 -10 10 -5 0
-10 -4 -10 -10z"/>
<path d="M5310 8440 c0 -5 5 -10 10 -10 6 0 10 5 10 10 0 6 -4 10 -10 10 -5 0
-10 -4 -10 -10z"/>
<path d="M5350 8418 c0 -9 5 -20 10 -23 13 -8 13 5 0 25 -8 13 -10 13 -10 -2z"/>
<path d="M5677 7623 c-4 -3 -7 -11 -7 -17 0 -6 5 -5 12 2 6 6 9 14 7 17 -3 3
-9 2 -12 -2z"/>
<path d="M800 12195 c0 -11 11 -15 40 -15 29 0 40 4 40 15 0 11 -11 15 -40 15
-29 0 -40 -4 -40 -15z"/>
</g>
</svg>
