<?xml version="1.0" standalone="no"?>
<!DOCTYPE svg PUBLIC "-//W3C//DTD SVG 20010904//EN"
 "http://www.w3.org/TR/2001/REC-SVG-20010904/DTD/svg10.dtd">
<svg version="1.0" xmlns="http://www.w3.org/2000/svg"
 width="238.000000pt" height="238.000000pt" viewBox="0 0 238.000000 238.000000"
 preserveAspectRatio="xMidYMid meet">

<g transform="translate(0.000000,238.000000) scale(0.100000,-0.100000)"
fill="#000000" stroke="none">
<path d="M1055 2330 c-264 -34 -500 -151 -685 -340 -133 -135 -236 -318 -287
-507 -24 -89 -27 -115 -27 -283 0 -171 2 -193 28 -285 104 -379 383 -673 755
-794 115 -38 210 -52 355 -52 306 0 577 112 796 329 569 564 384 1526 -355
1845 -169 73 -408 109 -580 87z m355 -44 c429 -92 767 -425 861 -846 56 -252
26 -488 -91 -725 -158 -320 -448 -540 -800 -606 -99 -19 -309 -16 -410 5 -426
90 -751 400 -862 821 -26 100 -36 339 -19 441 40 233 153 448 323 615 164 161
399 277 628 309 84 12 286 4 370 -14z"/>
<path d="M1125 2194 c-12 -5 -7 -134 5 -134 4 0 7 31 7 70 -1 38 -2 70 -2 69
0 0 -4 -2 -10 -5z"/>
<path d="M1163 2182 c21 -23 22 -51 3 -58 -12 -4 -9 -12 11 -35 15 -16 33 -29
41 -29 10 0 6 9 -12 25 -17 15 -25 32 -22 40 3 8 9 21 12 29 3 7 -2 21 -11 30
-23 22 -42 20 -22 -2z"/>
<path d="M1240 2189 c0 -5 5 -7 10 -4 6 3 10 8 10 11 0 2 -4 4 -10 4 -5 0 -10
-5 -10 -11z"/>
<path d="M1278 2181 c11 -6 12 -21 5 -70 -8 -49 -7 -61 4 -61 9 0 13 14 13 44
0 25 4 56 10 70 9 24 7 26 -18 26 -19 0 -23 -3 -14 -9z"/>
<path d="M987 2173 c-3 -5 0 -36 6 -70 8 -54 13 -63 31 -63 14 0 17 3 9 8 -7
4 -14 23 -17 42 -2 19 -8 43 -12 54 -4 11 -2 21 7 27 11 7 11 9 -3 9 -9 0 -19
-3 -21 -7z"/>
<path d="M1383 2102 c-23 -31 -40 -58 -38 -60 3 -3 60 51 57 55 -4 6 11 33 19
33 14 0 11 -48 -3 -53 -10 -4 -10 -6 0 -6 6 -1 12 -12 12 -26 0 -14 6 -25 13
-25 10 0 11 15 3 70 -5 39 -12 70 -15 70 -3 -1 -25 -26 -48 -58z"/>
<path d="M890 2135 c6 -8 10 -22 8 -32 -2 -10 5 -22 17 -29 11 -5 20 -20 19
-32 0 -11 3 -19 8 -16 17 11 8 56 -13 61 -13 4 -18 11 -14 21 6 16 -11 42 -27
42 -6 0 -5 -6 2 -15z"/>
<path d="M848 2134 c-3 -3 3 -34 15 -68 17 -52 23 -62 39 -58 15 4 16 6 4 16
-7 6 -21 35 -31 64 -17 54 -18 56 -27 46z"/>
<path d="M1035 2120 c-3 -5 1 -10 10 -10 9 0 13 5 10 10 -3 6 -8 10 -10 10 -2
0 -7 -4 -10 -10z"/>
<path d="M1517 2068 c-26 -57 -26 -61 -10 -74 10 -7 23 -13 28 -14 6 0 4 4 -4
9 -13 8 -13 15 0 53 7 23 21 50 31 60 14 14 14 17 1 22 -8 3 -15 6 -16 6 -1
-1 -14 -28 -30 -62z"/>
<path d="M1610 2083 c16 -23 19 -34 12 -54 -11 -29 -29 -45 -57 -52 -18 -4
-17 -5 3 -6 75 -4 107 94 42 129 l-22 12 22 -29z"/>
<path d="M750 2095 c0 -3 48 -107 57 -124 1 -1 6 0 11 3 10 6 -45 126 -59 126
-5 0 -9 -2 -9 -5z"/>
<path d="M640 2035 c0 -3 17 -32 38 -64 l37 -59 35 24 c19 13 29 24 23 24 -7
0 -15 -4 -18 -10 -13 -22 -37 -8 -66 40 -26 43 -49 63 -49 45z"/>
<path d="M1684 2007 c-53 -46 -24 -127 46 -127 41 0 73 31 73 68 0 30 -26 72
-45 72 -4 0 1 -9 12 -20 25 -25 25 -37 0 -77 -22 -37 -58 -44 -84 -17 -25 24
-19 53 18 90 38 38 22 47 -20 11z"/>
<path d="M512 1938 c-29 -29 5 -76 49 -65 10 3 26 -1 36 -9 17 -13 17 -15 -6
-34 -13 -11 -19 -20 -13 -20 14 0 42 29 42 43 -1 29 -20 41 -60 40 -47 -2 -66
21 -35 43 10 8 14 14 9 14 -6 0 -15 -5 -22 -12z"/>
<path d="M1813 1880 c-28 -28 -47 -53 -42 -56 6 -3 29 16 53 42 43 47 66 52
66 14 0 -10 -8 -24 -17 -30 -17 -10 -17 -11 1 -8 10 2 24 11 30 20 9 14 6 23
-14 42 l-25 25 -52 -49z"/>
<path d="M418 1828 c-13 -13 -16 -17 -6 -9 33 26 108 -14 108 -59 0 -11 -11
-27 -25 -36 -22 -14 -30 -15 -56 -3 -18 7 -37 25 -45 43 -7 18 -13 24 -14 14
0 -32 23 -68 49 -75 35 -9 52 -5 79 20 37 34 28 88 -19 112 -37 20 -44 19 -71
-7z"/>
<path d="M1831 1806 c-1 -24 2 -47 6 -49 5 -3 10 17 11 44 1 27 -2 49 -6 49
-5 0 -9 -20 -11 -44z"/>
<path d="M1094 1805 c-8 -19 2 -45 17 -45 8 0 8 4 -1 15 -10 12 -10 18 0 30 9
11 9 15 1 15 -6 0 -14 -7 -17 -15z"/>
<path d="M1138 1808 c16 -16 15 -67 0 -88 -7 -9 -3 -5 10 8 32 34 25 92 -12
92 -6 0 -5 -5 2 -12z"/>
<path d="M1207 1806 c-3 -7 0 -19 6 -25 8 -8 5 -16 -8 -31 -17 -19 -17 -22 -3
-36 14 -14 15 -14 11 9 -3 14 0 28 6 32 17 10 43 -16 38 -37 -3 -10 -1 -16 4
-12 12 7 11 38 -2 51 -8 8 -8 13 0 17 13 8 15 46 3 46 -5 0 -8 -10 -8 -22 1
-14 -5 -23 -14 -23 -9 0 -15 9 -14 23 1 24 -11 30 -19 8z"/>
<path d="M1959 1813 c-2 -5 -25 -26 -50 -45 -45 -34 -46 -36 -32 -61 7 -15 19
-27 25 -27 6 0 3 9 -7 20 -17 19 -17 20 6 39 24 20 24 20 42 0 9 -12 17 -17
17 -12 0 5 -5 14 -12 21 -9 10 -8 16 6 30 16 16 18 16 37 -7 10 -13 19 -19 19
-15 0 16 -47 68 -51 57z"/>
<path d="M1006 1791 c-4 -5 -2 -12 3 -15 8 -6 26 -73 23 -88 -1 -5 4 -8 12 -8
11 0 11 9 -3 55 -19 60 -26 71 -35 56z"/>
<path d="M1358 1788 c17 -21 6 -45 -34 -72 l-34 -23 35 -10 c21 -7 37 -7 41
-2 3 5 -6 9 -20 9 -34 0 -33 12 5 34 23 14 29 24 27 44 -2 14 -10 28 -18 30
-12 4 -13 3 -2 -10z"/>
<path d="M2002 1683 c-5 -10 -12 -30 -16 -45 -4 -18 -13 -28 -25 -28 -21 0
-35 25 -25 43 5 9 4 9 -5 1 -19 -17 4 -54 32 -54 29 0 47 18 47 46 0 42 49 57
51 16 0 -11 2 -12 6 -4 13 34 -48 57 -65 25z"/>
<path d="M304 1669 c-7 -12 -12 -9 58 -46 61 -33 64 -32 87 17 l12 25 -17 -22
c-21 -30 -31 -29 -87 7 -28 18 -49 25 -53 19z"/>
<path d="M1123 1553 c-17 -2 -42 -14 -55 -27 -13 -13 -33 -28 -45 -35 -13 -6
-23 -19 -23 -28 0 -12 -3 -13 -14 -4 -7 6 -21 9 -30 5 -9 -3 -16 -1 -16 5 0 8
-5 9 -19 1 -11 -5 -27 -7 -35 -4 -9 3 -16 1 -16 -5 0 -6 9 -11 20 -11 11 0 20
-4 20 -10 0 -13 -47 -13 -55 0 -14 23 6 50 38 51 31 1 31 1 7 9 -46 15 -69 10
-102 -20 -18 -16 -27 -30 -20 -30 6 0 12 -5 12 -11 0 -6 -6 -9 -14 -6 -9 4
-12 0 -9 -13 3 -10 0 -21 -6 -24 -7 -4 -11 1 -11 13 0 12 -4 21 -10 21 -5 0
-10 -7 -10 -15 0 -8 -5 -15 -11 -15 -6 0 -8 -9 -4 -20 3 -11 2 -20 -4 -20 -20
0 -23 -41 -4 -57 16 -13 16 -14 1 -9 -20 6 -25 -9 -7 -20 6 -3 9 -17 6 -30 -2
-15 3 -30 14 -40 18 -16 19 -15 20 42 1 32 1 62 0 67 -1 4 5 22 13 41 14 33
14 34 72 30 33 -2 53 -1 47 2 -19 8 -16 23 5 22 9 -1 33 2 53 5 46 9 64 -9 56
-58 -3 -19 -1 -37 5 -41 5 -4 17 -20 25 -38 l14 -31 -5 37 c-5 42 12 55 47 36
14 -7 17 -13 9 -16 -16 -5 -5 -22 14 -22 11 0 13 6 8 23 -8 28 -22 37 -55 37
-26 0 -26 1 -18 51 5 30 17 62 29 74 19 20 29 22 105 19 98 -3 109 -7 92 -35
-10 -17 -9 -22 5 -30 19 -10 33 -49 48 -128 10 -51 9 -55 -21 -92 -26 -34 -28
-40 -14 -45 9 -4 21 -2 28 5 16 16 30 14 24 -3 -4 -11 -1 -13 11 -9 33 12 -31
-47 -74 -69 -31 -15 -46 -31 -59 -62 -10 -22 -26 -60 -37 -84 -11 -24 -21 -48
-22 -55 -1 -7 -10 -24 -20 -39 -17 -26 -17 -29 -1 -54 20 -30 14 -51 -17 -64
l-23 -9 23 0 c12 -1 25 6 28 14 9 22 45 19 51 -5 6 -22 18 -26 28 -9 4 6 14 8
22 5 8 -3 11 -1 8 4 -7 11 12 51 29 62 17 12 27 9 24 -6 -2 -8 0 -15 5 -15 4
-1 7 1 7 4 0 3 0 14 0 26 0 12 -5 19 -12 16 -7 -2 -17 4 -23 14 -9 16 -12 16
-30 2 -16 -13 -17 -15 -2 -10 21 8 23 -9 1 -17 -24 -9 -54 -7 -54 4 0 6 -9 10
-20 10 -11 0 -20 4 -20 9 0 5 9 13 20 16 11 3 20 11 20 16 0 13 64 11 78 -3
10 -10 17 -10 32 0 22 13 54 3 63 -20 4 -10 6 -10 6 0 1 19 19 14 26 -8 8 -26
-9 -47 -52 -65 -18 -8 -33 -19 -33 -26 0 -8 5 -7 16 2 9 8 30 14 47 15 22 1
39 13 63 40 18 22 28 41 23 42 -5 2 -9 8 -9 14 0 6 6 8 13 6 6 -3 20 4 29 13
17 18 16 18 -10 13 -20 -4 -41 4 -81 31 -30 20 -57 32 -60 28 -3 -4 -13 -9
-21 -10 -8 -1 -46 -13 -85 -27 -38 -14 -71 -23 -73 -22 -10 11 16 37 51 50
l42 16 -39 -6 c-32 -4 -38 -3 -30 8 6 7 16 32 22 54 12 41 53 81 71 69 5 -2
12 2 15 11 3 8 10 13 15 9 6 -3 14 3 20 12 9 16 12 16 20 3 7 -10 7 -16 0 -18
-6 -3 -4 -14 6 -28 14 -22 14 -24 -2 -24 -14 0 -15 -2 -4 -9 11 -7 10 -11 -5
-19 -11 -5 -25 -7 -32 -5 -8 3 -10 -1 -6 -11 4 -12 0 -16 -15 -16 -14 0 -21
-6 -21 -20 0 -24 3 -24 41 -4 28 14 33 14 56 -1 13 -9 27 -15 29 -12 2 2 -7
10 -21 17 -28 15 -32 32 -11 49 11 10 23 8 55 -9 23 -11 41 -22 41 -25 0 -11
-73 3 -80 15 -5 8 -12 11 -17 6 -4 -4 1 -12 12 -19 11 -6 32 -23 47 -39 20
-22 32 -27 51 -23 14 4 28 2 31 -4 4 -5 14 -7 22 -4 13 5 13 7 2 14 -10 7 -10
11 0 21 10 10 14 8 18 -10 4 -12 13 -22 22 -22 12 0 13 3 5 11 -9 9 -8 16 4
28 13 13 17 13 21 2 3 -8 14 5 27 30 33 65 16 79 -40 33 -25 -20 -46 -31 -49
-25 -4 6 -12 8 -20 5 -23 -9 -63 14 -70 40 -3 14 -10 26 -16 26 -5 0 -19 14
-31 31 -17 24 -19 33 -9 39 10 6 8 16 -9 43 -27 43 -30 97 -7 131 17 27 15 29
-19 27 -19 -2 -19 -1 -2 12 20 16 23 32 5 21 -7 -4 -4 3 7 16 17 20 18 23 3
17 -10 -4 -18 -2 -18 3 0 6 10 10 23 11 21 1 21 1 -3 9 -14 4 -18 8 -10 9 8 1
25 13 37 29 23 27 23 27 14 2 -8 -22 -6 -25 14 -25 19 0 21 3 14 23 -12 30
-12 29 11 35 11 3 20 10 20 15 0 13 -93 -22 -98 -37 -2 -6 -8 -11 -14 -11 -5
0 -7 8 -4 18 4 12 -1 26 -14 37 -16 14 -20 15 -20 4 0 -17 -76 -24 -85 -8 -5
8 23 14 48 10 14 -2 6 9 -15 20 -13 7 -34 14 -48 15 -14 1 -34 4 -45 7 -11 2
-34 2 -52 0z m-38 -43 c-10 -11 -23 -20 -28 -20 -6 0 -2 9 8 20 10 11 23 20
28 20 6 0 2 -9 -8 -20z m-55 -55 c0 -14 -4 -25 -10 -25 -11 0 -14 33 -3 43 11
11 13 8 13 -18z m275 17 c17 -12 35 -51 26 -56 -5 -3 -7 -18 -5 -33 4 -25 2
-24 -10 7 -7 19 -12 38 -10 41 2 4 -3 12 -11 19 -25 21 -16 41 10 22z m96
-419 c15 -9 31 -23 34 -31 11 -30 -7 -25 -43 11 -40 40 -37 47 9 20z m-61
-163 c0 -5 -4 -10 -10 -10 -5 0 -10 5 -10 10 0 6 5 10 10 10 6 0 10 -4 10 -10z
m90 -20 c8 -5 11 -12 7 -16 -4 -4 -15 0 -24 9 -18 18 -8 23 17 7z m10 -50 c0
-5 -4 -10 -10 -10 -5 0 -10 5 -10 10 0 6 5 10 10 10 6 0 10 -4 10 -10z"/>
<path d="M1514 1494 c-16 -13 -16 -15 -1 -10 11 3 17 0 17 -9 0 -8 5 -15 10
-15 6 0 10 -6 10 -14 0 -9 7 -12 20 -9 11 3 20 0 20 -6 0 -6 5 -11 10 -11 6 0
10 11 10 24 0 19 -4 22 -25 18 -25 -4 -35 11 -15 23 18 11 11 25 -13 25 -13 0
-32 -7 -43 -16z"/>
<path d="M1830 1424 c0 -65 27 -161 42 -146 18 18 5 125 -20 163 l-22 34 0
-51z"/>
<path d="M510 1418 c-21 -46 -26 -113 -10 -138 7 -11 11 -8 21 15 13 34 25
165 15 165 -4 0 -16 -19 -26 -42z"/>
<path d="M1480 1447 c-20 -8 -22 -11 -8 -14 20 -5 55 12 42 19 -5 3 -20 1 -34
-5z"/>
<path d="M1611 1406 c-9 -11 -6 -15 16 -21 16 -4 22 -10 16 -12 -10 -3 -10
-10 -2 -25 10 -18 9 -18 -10 -8 -27 14 -27 -1 -1 -25 24 -22 27 -43 3 -24 -15
13 -15 12 -5 -8 7 -12 12 -46 13 -75 0 -29 3 -47 6 -40 2 6 11 12 19 12 8 0
14 6 14 13 0 19 -20 177 -26 205 -5 25 -26 29 -43 8z"/>
<path d="M1174 1332 c-6 -4 -14 -16 -19 -27 -12 -30 -22 -115 -13 -109 4 3 8
16 8 30 0 13 5 24 11 24 5 0 7 4 4 10 -10 16 14 50 35 50 22 0 27 -16 8 -23
-8 -3 -6 -6 5 -6 9 -1 17 -6 17 -13 0 -9 3 -9 12 0 9 9 6 18 -13 38 l-24 27
23 -6 c12 -3 20 -1 16 4 -6 11 -55 12 -70 1z"/>
<path d="M404 1252 c3 -34 13 -76 21 -92 16 -30 53 -70 66 -70 19 0 -42 165
-76 205 -16 19 -16 17 -11 -43z"/>
<path d="M1928 1240 c-21 -41 -40 -92 -44 -114 -6 -37 -6 -38 15 -26 45 24 78
111 69 186 -3 26 -7 22 -40 -46z"/>
<path d="M763 1280 c9 -6 15 -15 12 -21 -4 -5 1 -9 11 -9 14 0 15 -2 3 -17
-12 -15 -12 -16 8 -11 12 3 24 1 27 -6 2 -6 5 0 5 14 1 35 -9 47 -49 54 -28 6
-31 5 -17 -4z"/>
<path d="M898 1283 c-31 -5 -35 -18 -14 -46 10 -12 16 -15 21 -7 4 6 13 9 21
6 7 -3 16 -1 19 4 4 6 -1 10 -9 10 -17 0 -17 20 -1 32 11 8 11 8 -37 1z"/>
<path d="M567 1254 c-38 -38 -57 -112 -38 -143 7 -11 14 -7 30 20 20 32 47
136 38 145 -2 2 -16 -8 -30 -22z"/>
<path d="M1545 1272 c-6 -4 -12 -18 -12 -31 -1 -13 -1 -22 0 -20 1 2 13 16 26
32 17 19 20 27 10 27 -8 0 -19 -4 -24 -8z"/>
<path d="M1777 1243 c7 -49 41 -129 60 -145 14 -11 15 -6 11 49 -3 47 -10 69
-32 97 -35 46 -46 46 -39 -1z"/>
<path d="M1197 1259 c7 -7 15 -10 18 -7 3 3 -2 9 -12 12 -14 6 -15 5 -6 -5z"/>
<path d="M1424 1258 c-4 -6 -3 -8 3 -5 16 10 55 -23 48 -42 -5 -12 -4 -13 6
-4 9 9 8 18 -5 37 -17 28 -40 34 -52 14z"/>
<path d="M1376 1231 c-3 -4 6 -13 19 -19 30 -14 31 -12 5 10 -10 10 -22 14
-24 9z"/>
<path d="M1420 1229 c0 -5 5 -7 10 -4 6 3 10 8 10 11 0 2 -4 4 -10 4 -5 0 -10
-5 -10 -11z"/>
<path d="M1560 1230 c0 -5 5 -10 10 -10 6 0 10 5 10 10 0 6 -4 10 -10 10 -5 0
-10 -4 -10 -10z"/>
<path d="M1026 1172 c-4 -18 -14 -36 -22 -39 -22 -8 -17 -28 11 -43 29 -15 31
-27 10 -50 -13 -15 -14 -19 -1 -29 11 -9 17 -8 30 4 9 9 13 22 9 28 -4 7 -13
46 -19 87 -9 68 -11 72 -18 42z"/>
<path d="M1126 1165 c-7 -20 23 -33 34 -15 5 8 13 9 21 4 12 -6 12 -5 0 9 -17
21 -47 22 -55 2z"/>
<path d="M838 1133 c6 -2 18 -2 25 0 6 3 1 5 -13 5 -14 0 -19 -2 -12 -5z"/>
<path d="M1470 1131 c0 -5 6 -11 12 -13 9 -3 8 -9 -5 -22 -9 -9 -21 -15 -27
-11 -6 3 -7 -1 -4 -9 3 -9 15 -16 25 -16 10 0 19 -4 19 -10 0 -5 7 -10 15 -10
8 0 15 5 15 10 0 6 -5 9 -11 8 -15 -4 -22 39 -8 47 7 5 6 11 -2 21 -13 16 -29
19 -29 5z"/>
<path d="M742 1107 c5 -35 14 -43 21 -18 3 11 -2 26 -10 32 -12 10 -14 8 -11
-14z"/>
<path d="M1637 1123 c-4 -3 -7 -11 -7 -17 0 -6 5 -5 12 2 6 6 9 14 7 17 -3 3
-9 2 -12 -2z"/>
<path d="M580 1078 c-11 -24 -20 -52 -20 -64 0 -28 20 -84 30 -84 12 0 30 83
30 139 0 62 -14 65 -40 9z"/>
<path d="M1147 1109 c8 -8 16 -8 30 0 16 9 14 10 -11 11 -22 0 -27 -3 -19 -11z"/>
<path d="M1760 1053 c0 -111 30 -162 46 -78 8 46 -2 98 -26 127 l-19 23 -1
-72z"/>
<path d="M1526 1095 c4 -8 10 -15 14 -15 5 0 17 -3 27 -7 11 -4 8 2 -9 15 -31
26 -40 28 -32 7z"/>
<path d="M832 1092 c-10 -3 -9 -8 4 -23 18 -20 40 -26 28 -8 -3 6 -1 15 6 19
14 9 -17 19 -38 12z"/>
<path d="M410 1077 c0 -51 51 -126 103 -154 38 -19 44 -10 21 32 -26 49 -124
145 -124 122z"/>
<path d="M1195 1060 c-19 -19 -39 -30 -57 -30 -32 0 -33 -2 -9 -55 l18 -40 17
39 c9 21 16 41 16 44 0 3 11 20 26 39 31 41 27 42 -11 3z"/>
<path d="M1903 1037 c-48 -51 -89 -114 -80 -123 18 -18 102 51 122 101 38 91
28 96 -42 22z"/>
<path d="M762 1018 c-26 -26 -3 -98 35 -112 13 -5 15 0 10 33 l-5 39 37 -5
c56 -7 61 -11 61 -36 0 -13 3 -26 6 -30 12 -12 34 6 34 28 0 31 20 43 21 13 1
-20 2 -19 9 6 5 16 14 33 21 37 6 4 9 12 5 18 -5 7 -14 6 -29 -4 -34 -22 -155
-18 -170 6 -14 22 -19 23 -35 7z"/>
<path d="M1045 980 c-4 -6 -3 -16 3 -22 13 -13 23 4 13 21 -7 10 -10 10 -16 1z"/>
<path d="M1097 983 c-3 -4 1 -17 9 -28 10 -13 14 -15 14 -4 0 20 -16 43 -23
32z"/>
<path d="M652 963 c-25 -45 -13 -126 25 -173 2 -2 8 2 13 10 14 22 11 68 -9
130 -16 51 -18 54 -29 33z"/>
<path d="M1699 955 c-17 -41 -25 -165 -10 -165 37 0 61 127 34 175 -11 19 -12
19 -24 -10z"/>
<path d="M1014 917 c-27 -34 -71 -60 -85 -51 -8 4 -9 3 -5 -5 5 -8 -3 -16 -23
-24 -17 -6 -31 -14 -31 -18 0 -12 29 -19 35 -9 9 15 27 12 20 -2 -4 -7 0 -5 8
4 7 10 26 22 40 27 22 9 27 8 27 -4 0 -13 3 -13 25 1 14 9 25 23 25 30 0 21
27 29 45 14 32 -26 26 0 -6 29 -40 37 -49 38 -75 8z m56 -7 c0 -5 -4 -10 -10
-10 -5 0 -10 5 -10 10 0 6 5 10 10 10 6 0 10 -4 10 -10z m-40 -55 c-7 -9 -15
-13 -19 -10 -3 3 1 10 9 15 21 14 24 12 10 -5z"/>
<path d="M957 903 c-4 -3 -7 -11 -7 -17 0 -6 5 -5 12 2 6 6 9 14 7 17 -3 3 -9
2 -12 -2z"/>
<path d="M474 864 c46 -72 131 -126 172 -110 15 6 14 10 -9 34 -29 30 -119 86
-157 97 l-24 8 18 -29z"/>
<path d="M1853 869 c-45 -22 -133 -95 -133 -110 0 -15 39 -10 79 11 52 26 134
122 104 120 -5 -1 -27 -10 -50 -21z"/>
<path d="M1522 865 c-11 -13 -10 -15 7 -15 10 0 21 7 25 15 7 19 -15 19 -32 0z"/>
<path d="M745 837 c-11 -44 4 -96 40 -135 18 -20 36 -34 40 -30 12 12 -7 75
-40 134 -32 57 -34 58 -40 31z"/>
<path d="M1074 844 c9 -8 20 -12 26 -9 19 12 10 25 -16 25 -23 0 -24 -1 -10
-16z"/>
<path d="M1585 798 c-25 -46 -49 -128 -38 -128 16 0 44 25 62 54 21 33 30 126
13 126 -5 0 -22 -23 -37 -52z"/>
<path d="M1305 830 c3 -5 11 -10 16 -10 6 0 7 5 4 10 -3 6 -11 10 -16 10 -6 0
-7 -4 -4 -10z"/>
<path d="M965 810 c-3 -6 1 -7 9 -4 18 7 21 14 7 14 -6 0 -13 -4 -16 -10z"/>
<path d="M1023 773 c-13 -2 -23 -10 -23 -18 0 -16 32 -13 38 3 2 6 10 8 18 5
8 -3 14 0 14 6 0 11 -7 12 -47 4z"/>
<path d="M865 728 c10 -50 37 -90 73 -111 38 -22 47 -18 38 18 -7 28 -91 125
-108 125 -6 0 -7 -14 -3 -32z"/>
<path d="M1476 739 c-31 -24 -86 -105 -86 -126 0 -42 92 27 110 82 6 19 10 42
8 51 -3 14 -7 13 -32 -7z"/>
<path d="M595 685 c61 -54 155 -81 194 -56 28 18 -79 66 -172 76 l-52 6 30
-26z"/>
<path d="M1707 699 c-20 -5 -60 -20 -89 -35 -38 -19 -48 -28 -37 -35 39 -25
160 11 203 60 19 21 19 21 -10 20 -16 -1 -46 -5 -67 -10z"/>
<path d="M1015 663 c19 -46 59 -81 102 -89 51 -10 58 -1 28 34 -25 30 -118 92
-138 92 -4 0 0 -17 8 -37z"/>
<path d="M1298 663 c-31 -21 -67 -51 -79 -67 l-23 -29 42 6 c24 3 54 13 68 22
39 25 82 105 56 105 -4 0 -33 -17 -64 -37z"/>
<path d="M474 569 c-20 -22 -23 -28 -8 -19 18 11 50 50 41 50 -2 0 -16 -14
-33 -31z"/>
<path d="M755 571 l-30 -7 35 -19 c44 -24 177 -28 204 -6 16 14 16 15 0 24
-21 12 -170 18 -209 8z"/>
<path d="M1433 569 c-40 -11 -42 -22 -8 -37 41 -19 125 -14 175 10 43 20 44
21 20 28 -35 11 -148 10 -187 -1z"/>
<path d="M523 538 c-23 -30 -24 -41 -2 -21 12 12 20 25 17 28 -3 3 -10 0 -15
-7z"/>
<path d="M1820 537 c0 -2 15 -16 33 -33 l32 -29 -29 33 c-28 30 -36 37 -36 29z"/>
<path d="M1019 511 c-31 -10 -66 -25 -78 -33 l-22 -15 23 -7 c41 -11 108 -6
145 9 40 17 73 43 73 57 0 14 -82 8 -141 -11z"/>
<path d="M1219 512 c6 -12 26 -29 43 -38 40 -21 148 -30 174 -16 17 9 12 14
-40 37 -33 14 -88 29 -124 32 -63 6 -64 6 -53 -15z"/>
<path d="M554 488 l-19 -23 23 19 c12 11 22 21 22 23 0 8 -8 2 -26 -19z"/>
<path d="M1782 461 c13 -17 27 -30 31 -30 5 -1 -2 12 -15 28 -13 17 -27 30
-31 30 -5 1 2 -12 15 -28z"/>
<path d="M1810 470 c0 -6 7 -10 15 -10 8 0 15 2 15 4 0 2 -7 6 -15 10 -8 3
-15 1 -15 -4z"/>
<path d="M602 440 c0 -14 2 -19 5 -12 2 6 2 18 0 25 -3 6 -5 1 -5 -13z"/>
<path d="M1745 430 c17 -11 35 -20 40 -20 6 0 -5 9 -23 20 -42 26 -56 26 -17
0z"/>
<path d="M655 404 c-9 -14 -15 -27 -13 -30 2 -2 12 10 22 26 21 37 15 40 -9 4z"/>
<path d="M1682 386 c13 -19 24 -33 26 -32 5 5 -33 66 -41 66 -4 0 3 -15 15
-34z"/>
<path d="M711 395 c0 -12 -5 -26 -11 -33 -5 -7 -3 -6 6 2 9 7 14 22 11 32 -4
17 -5 17 -6 -1z"/>
<path d="M1620 385 c0 -5 9 -23 20 -40 26 -39 26 -25 0 17 -11 18 -20 29 -20
23z"/>
<path d="M1569 346 c11 -12 51 -29 51 -21 0 2 -14 10 -31 19 -23 12 -28 12
-20 2z"/>
<path d="M755 341 c-3 -5 -1 -12 5 -16 5 -3 10 1 10 9 0 18 -6 21 -15 7z"/>
<path d="M795 339 c-4 -6 -5 -12 -2 -15 2 -3 7 2 10 11 7 17 1 20 -8 4z"/>
<path d="M790 301 c0 -6 4 -13 10 -16 6 -3 7 1 4 9 -7 18 -14 21 -14 7z"/>
<path d="M915 299 c-4 -6 -5 -12 -2 -15 2 -3 7 2 10 11 7 17 1 20 -8 4z"/>
<path d="M975 275 c0 -13 3 -21 8 -18 4 2 7 10 7 18 0 8 -3 16 -7 18 -5 3 -8
-5 -8 -18z"/>
<path d="M1360 297 c0 -15 32 -57 44 -57 7 0 8 3 0 8 -5 4 -18 18 -27 32 -9
13 -17 21 -17 17z"/>
<path d="M1028 262 c13 -17 28 -35 34 -39 7 -3 2 8 -10 25 -13 17 -28 35 -34
39 -7 3 -2 -8 10 -25z"/>
<path d="M1140 256 c0 -19 3 -37 8 -40 4 -2 6 13 4 35 -5 48 -12 51 -12 5z"/>
<path d="M1233 272 c4 -6 22 -21 39 -34 17 -12 28 -17 25 -10 -4 6 -22 21 -39
34 -17 12 -28 17 -25 10z"/>
<path d="M1331 264 c0 -11 3 -14 6 -6 3 7 2 16 -1 19 -3 4 -6 -2 -5 -13z"/>
<path d="M910 261 c0 -6 4 -13 10 -16 6 -3 7 1 4 9 -7 18 -14 21 -14 7z"/>
</g>
</svg>
