<?xml version="1.0" encoding="utf-8" ?>
<svg xmlns="http://www.w3.org/2000/svg" xmlns:xlink="http://www.w3.org/1999/xlink" width="512" height="512">
	<path fill="#F1F1ED" transform="scale(0.666667 0.666667)" d="M-0 -0L768 0L768 768L-0 768L0 -0Z"/>
	<path fill="#6D4138" transform="scale(0.666667 0.666667)" d="M300.601 60.7669L310.987 57.9045C310.259 59.8648 310.086 59.8508 308.25 60.9033L306.508 60.8902C304.661 60.6077 302.486 60.7738 300.601 60.7669Z"/>
	<path fill="#E9BC8B" transform="scale(0.666667 0.666667)" d="M330.744 451.928L329.28 449.908C323.461 441.544 321.273 429.24 323.057 419.296C324.767 421.601 326.28 424.013 328.318 426.05L328.658 426.382C327.845 427.637 328.069 429.154 328.082 430.593C328.121 434.792 328.299 439.486 329.143 443.611C329.697 446.322 331.915 449.39 330.744 451.928Z"/>
	<path fill="#7598A4" transform="scale(0.666667 0.666667)" d="M326.372 489.471C326.582 490.018 326.879 490.437 326.771 491.02C325.731 496.59 326.941 502.969 327.846 508.496L327.228 506.696C326.184 507.261 325.65 508.533 324.996 509.511L321.435 514.316L305.838 532.279C311.632 517.78 318.147 502.769 326.372 489.471Z"/>
	<path fill="#C88F62" transform="scale(0.666667 0.666667)" d="M328.658 426.382C330.76 429.85 331.05 434.875 332.368 438.81C335.724 448.836 342.316 457.487 350.826 463.71C354.597 466.467 358.885 468.731 362.879 471.162C361.332 472.1 359.739 472.738 358.067 473.414C356.293 474.131 353.32 472.82 351.666 472.056C342.763 467.939 336.49 459.601 330.744 451.928C331.915 449.39 329.697 446.322 329.143 443.611C328.299 439.486 328.121 434.792 328.082 430.593C328.069 429.154 327.845 427.637 328.658 426.382Z"/>
	<path fill="#6D4138" transform="scale(0.666667 0.666667)" d="M285.98 699.97C294.437 697.895 304.016 699.473 312.68 698.914L311.183 726.421L284.899 723.268L285.98 699.97Z"/>
	<path fill="#DBA36C" transform="scale(0.666667 0.666667)" d="M346.536 412.718L347.626 412.441C350.102 414.583 352.635 416.78 354.814 419.228C358.159 422.988 360.992 427.336 364.004 431.368L377.901 449.592C380.104 452.427 382.716 456.753 385.52 458.814L385.511 458.911C383.331 459.367 380.841 461.044 378.894 462.147C374.449 464.666 370.206 467.326 365.57 469.495C364.296 469.008 362.602 466.745 361.633 465.693C355.494 459.025 351.759 449.066 349.854 440.308C348.947 436.137 348.369 431.686 346.879 427.688C345.177 423.123 342.516 418.986 339.272 415.367C341.597 414.249 344.089 413.521 346.536 412.718Z"/>
	<path fill="#DBA36C" transform="scale(0.666667 0.666667)" d="M338.297 533.284C337.952 536.664 336.825 540.077 336.006 543.375L327.89 573.363C325.321 583.466 323.626 593.782 321.855 604.049C318.998 620.613 316.504 636.873 315.226 653.644C314.822 658.949 314.026 664.613 314.265 669.916L313.478 683.997L312.68 698.914C304.016 699.473 294.437 697.895 285.98 699.97L286.697 684.938L287.372 673.121C289.133 657.697 290.031 642.38 293.676 627.195C300.967 596.825 319.171 571.274 333.13 543.854C334.708 540.755 335.972 537.186 336.854 533.818L336.938 533.488L338.297 533.284Z"/>
	<path fill="#A77154" transform="scale(0.666667 0.666667)" d="M287.372 673.121L313.629 671.062L314.265 669.916L313.478 683.997L286.697 684.938L287.372 673.121Z"/>
	<path fill="#8F624B" transform="scale(0.666667 0.666667)" d="M313.478 683.997L312.68 698.914C304.016 699.473 294.437 697.895 285.98 699.97L286.697 684.938L313.478 683.997Z"/>
	<path fill="#112A37" transform="scale(0.666667 0.666667)" d="M301.34 458.521C303.35 454.782 305.099 450.301 307.502 446.875C306.661 460.652 305.545 474.13 302.745 487.684C299.765 502.107 294.679 516.124 290.352 530.185L272.961 591.019L252.008 674.062C248.855 687.025 246.387 700.31 242.514 713.076L226.968 706.939L301.34 458.521Z"/>
	<path fill="#112A37" transform="scale(0.666667 0.666667)" d="M326.372 489.471C329.378 483.288 333.313 476.713 340.266 474.453C344.101 473.206 347.404 473.163 351.036 475.087L353.635 476.482L351.284 478.492C351.644 479.105 351.384 478.886 351.955 479.122C354.812 480.299 357.121 482.37 359.356 484.455C365.3 489.999 369.743 496.775 374.114 503.567C372.263 509.25 369.571 514.706 367.303 520.238C366.097 523.179 364.626 528.692 362.544 530.92L354.205 531.01L358.562 552.43L365.319 600.582C366.222 608.316 367.586 616.585 367.536 624.346C367.459 626.891 367.88 630.16 367.166 632.561C365.835 637.035 363.456 641.522 361.617 645.837L353.975 664.986L342.511 696.868L333.275 728.229L331.941 728.851L311.183 726.421L312.68 698.914L313.478 683.997L314.265 669.916C314.026 664.613 314.822 658.949 315.226 653.644C316.504 636.873 318.998 620.613 321.855 604.049C323.626 593.782 325.321 583.466 327.89 573.363L336.006 543.375C336.825 540.077 337.952 536.664 338.297 533.284L338.736 532.307C337.851 530.812 331.591 532.789 330.075 531.375L330.734 529.5C331.35 528.308 333.068 528.163 334.293 527.799C334.347 519.11 333.414 510.429 333.714 501.75C333.8 499.257 335.285 489.224 334.457 487.564C331.728 489.874 330.82 492.565 330.528 496.062L329.483 519.815C328.793 517.377 328.681 514.891 328.329 512.395C328.154 511.15 327.649 509.731 327.846 508.496C326.941 502.969 325.731 496.59 326.771 491.02C326.879 490.437 326.582 490.018 326.372 489.471Z"/>
	<path fill="#DBA36C" transform="scale(0.666667 0.666667)" d="M334.457 487.564C335.985 486.766 337.349 486.5 339.047 486.966C341.231 487.564 343.093 488.935 344.604 490.583C344.859 498.29 342.817 505.804 342.694 513.511C342.646 516.55 342.614 519.666 343.039 522.677C343.29 524.458 344.163 526.712 344.103 528.419L334.293 527.799C334.347 519.11 333.414 510.429 333.714 501.75C333.8 499.257 335.285 489.224 334.457 487.564Z"/>
	<path fill="#324A57" transform="scale(0.666667 0.666667)" d="M445.705 475.09L449.589 470.375C451.997 472.185 453.78 474.681 455.715 476.966L462.926 484.946L490.778 512.715C485.913 515.78 480.637 518.276 475.584 521.017C473.481 522.158 471.188 523.252 469.279 524.7L494.082 547.21L449.756 616.249L408.157 675.904L382.172 715.626L376.377 724.469C374.9 726.625 372.788 728.417 372.09 730.987L344.831 729.938C340.527 729.631 336.212 729.498 331.941 728.851L333.275 728.229L342.511 696.868L353.975 664.986L361.617 645.837C363.456 641.522 365.835 637.035 367.166 632.561C367.88 630.16 367.459 626.891 367.536 624.346C367.586 616.585 366.222 608.316 365.319 600.582L358.562 552.43L354.205 531.01L362.544 530.92C364.626 528.692 366.097 523.179 367.303 520.238C369.571 514.706 372.263 509.25 374.114 503.567L395.892 536.643C397.451 531.83 399.328 527.266 401.465 522.68C403.316 518.708 405.542 514.526 406.562 510.253C407.136 510.127 407.523 510.054 408.017 509.718C409.095 508.984 410.115 507.588 411.038 506.652L416.568 501.29L439.603 479.964C440.939 478.753 442.569 476.312 444 475.48C444.362 475.269 445.264 475.191 445.705 475.09Z"/>
	<path fill="#112A37" transform="scale(0.666667 0.666667)" d="M448.309 539.062C448.624 539.001 448.936 538.84 449.256 538.877C450.519 539.021 457.949 544.998 459.458 546.049L475.483 556.688L475.406 557.437L472.984 558.666C472.445 558.874 472.069 558.931 471.476 558.987C469.755 559.15 449.413 542.982 446.812 540.769L446.781 540.188L448.309 539.062Z"/>
	<defs>
		<linearGradient id="gradient_0" gradientUnits="userSpaceOnUse" x1="462.88101" y1="520.16199" x2="345.13101" y2="578.30103">
			<stop offset="0" stop-color="#77A1AD"/>
			<stop offset="1" stop-color="#99BCC6"/>
		</linearGradient>
	</defs>
	<path fill="url(#gradient_0)" transform="scale(0.666667 0.666667)" d="M406.562 510.253C407.136 510.127 407.523 510.054 408.017 509.718C409.095 508.984 410.115 507.588 411.038 506.652L416.568 501.29L439.603 479.964C440.939 478.753 442.569 476.312 444 475.48C444.362 475.269 445.264 475.191 445.705 475.09C432.928 492.974 423.18 512.36 412.932 531.729L383.402 591.684C377.603 604.585 371.79 617.735 367.98 631.37C367.892 629.15 368.04 626.487 367.536 624.346C367.586 616.585 366.222 608.316 365.319 600.582L358.562 552.43L354.205 531.01L362.544 530.92C364.626 528.692 366.097 523.179 367.303 520.238C369.571 514.706 372.263 509.25 374.114 503.567L395.892 536.643C397.451 531.83 399.328 527.266 401.465 522.68C403.316 518.708 405.542 514.526 406.562 510.253Z"/>
	<defs>
		<linearGradient id="gradient_1" gradientUnits="userSpaceOnUse" x1="333.91" y1="493.095" x2="173.40199" y2="669.87201">
			<stop offset="0" stop-color="#4E6F7D"/>
			<stop offset="1" stop-color="#6B92A1"/>
		</linearGradient>
	</defs>
	<path fill="url(#gradient_1)" transform="scale(0.666667 0.666667)" d="M289.811 469.932C290.981 469.406 291.974 468.365 292.927 467.522C296.006 464.797 298.512 461.502 301.34 458.521L226.968 706.939L214.971 701.123L188.489 687.035C185.098 685.17 181.873 682.687 178.684 680.478C173.54 676.915 168.44 673.391 163.622 669.387L162.607 668.6C159.261 666.077 156.398 662.964 153.437 660.01L135.291 640.795L136.143 596.452C138.031 583.304 138.165 569.81 142.979 557.237L145.086 552.784L145.239 552.496C152.663 538.733 164.715 532.654 179.108 528.248C180.851 527.079 184.301 526.588 185.447 524.783L195.385 519.284L228.387 503.631C234.926 500.598 241.487 497.146 248.265 494.724L264.678 486.571L264.74 486.479L273.699 481.749C275.554 480.656 278.436 478.109 280.453 478.079C280.728 478.76 280.816 479.078 281.375 479.578C284.007 476.094 286.667 472.964 289.811 469.932Z"/>
	<path fill="#9ABCC5" transform="scale(0.666667 0.666667)" d="M259.361 509.747L259.312 511.346L260.525 511.126C260.199 512.186 258.993 513.528 258.349 514.457C254.596 519.874 250.463 525.01 245.198 529.013L259.361 509.747Z"/>
	<defs>
		<linearGradient id="gradient_2" gradientUnits="userSpaceOnUse" x1="250.896" y1="496.29199" x2="257.229" y2="488.83301">
			<stop offset="0" stop-color="#0E212D"/>
			<stop offset="1" stop-color="#2B4357"/>
		</linearGradient>
	</defs>
	<path fill="url(#gradient_2)" transform="scale(0.666667 0.666667)" d="M248.265 494.724L264.678 486.571L264.84 487.249L247.166 499.027C247.36 498.466 247.502 498.171 247.903 497.713C248.317 497.241 248.248 497.532 248.257 497.06L244.899 497.845C246.231 496.906 247.23 495.984 248.265 494.724Z"/>
	<path fill="#E7F0F3" transform="scale(0.666667 0.666667)" d="M259.361 509.747L280.453 478.079C280.728 478.76 280.816 479.078 281.375 479.578L260.525 511.126L259.312 511.346L259.361 509.747Z"/>
	<path fill="#324A57" transform="scale(0.666667 0.666667)" d="M189.08 686.743L189.376 686.439C190.162 685.443 190.464 683.903 190.867 682.7L193.688 674.158L200.626 654.206C202.988 646.584 204.751 638.686 206.062 630.815C207.334 623.183 207.496 615.49 208.688 607.892L209.076 607.919L208.84 631.249L210.835 670.836L213.029 692.293C213.424 694.925 215.123 698.664 214.971 701.123L188.489 687.035L189.08 686.743Z"/>
	<defs>
		<linearGradient id="gradient_3" gradientUnits="userSpaceOnUse" x1="273.19601" y1="572.75" x2="146.431" y2="614.427">
			<stop offset="0" stop-color="#041012"/>
			<stop offset="1" stop-color="#2F495B"/>
		</linearGradient>
	</defs>
	<path fill="url(#gradient_3)" transform="scale(0.666667 0.666667)" d="M244.899 497.845L248.257 497.06C248.248 497.532 248.317 497.241 247.903 497.713C247.502 498.171 247.36 498.466 247.166 499.027L246.722 499.469C241.825 504.279 236.239 508.612 231.161 513.276C220.6 522.978 210.381 533.327 202.849 545.612C196.606 555.795 192.246 567.358 188.594 578.692C184.558 591.215 181.399 603.461 181.171 616.688C180.881 633.547 181.99 649.885 184.849 666.513C186.019 673.318 188.214 679.883 189.08 686.743L188.489 687.035C185.098 685.17 181.873 682.687 178.684 680.478C173.54 676.915 168.44 673.391 163.622 669.387C163.388 658.466 164.203 646.093 166.629 635.412C168.66 626.467 174.014 618.722 177.101 610.095C179.6 603.11 181.007 595.71 182.975 588.562C186.717 574.973 191.478 560.714 198.17 548.257C200.663 543.616 203.602 539.26 206.561 534.91C209.248 532.387 211.533 528.784 214 525.988C220.499 518.622 227.551 511.637 234.98 505.213C238.083 502.53 241.153 499.591 244.899 497.845Z"/>
	<defs>
		<linearGradient id="gradient_4" gradientUnits="userSpaceOnUse" x1="266.72" y1="564.86798" x2="142.172" y2="599.13">
			<stop offset="0" stop-color="#2D4D60"/>
			<stop offset="1" stop-color="#7AA4B3"/>
		</linearGradient>
	</defs>
	<path fill="url(#gradient_4)" transform="scale(0.666667 0.666667)" d="M185.447 524.783L195.385 519.284L228.387 503.631C234.926 500.598 241.487 497.146 248.265 494.724C247.23 495.984 246.231 496.906 244.899 497.845C241.153 499.591 238.083 502.53 234.98 505.213C227.551 511.637 220.499 518.622 214 525.988C211.533 528.784 209.248 532.387 206.561 534.91C203.602 539.26 200.663 543.616 198.17 548.257C191.478 560.714 186.717 574.973 182.975 588.562C181.007 595.71 179.6 603.11 177.101 610.095C174.014 618.722 168.66 626.467 166.629 635.412C164.203 646.093 163.388 658.466 163.622 669.387L162.607 668.6C159.261 666.077 156.398 662.964 153.437 660.01L135.291 640.795L136.143 596.452C138.031 583.304 138.165 569.81 142.979 557.237L145.086 552.784L145.239 552.496C152.663 538.733 164.715 532.654 179.108 528.248C180.851 527.079 184.301 526.588 185.447 524.783Z"/>
	<path fill="#112A37" transform="scale(0.666667 0.666667)" d="M179.108 528.248C178.489 529.86 174.814 531.965 173.3 533.144C160.193 542.495 154.636 559.149 152.049 574.383C150.627 582.752 150.327 591.363 150.355 599.83C150.41 616.576 152.32 633.427 156.271 649.703C157.085 653.058 158.051 656.343 159.333 659.551C160.533 662.554 162.175 665.357 162.607 668.6C159.261 666.077 156.398 662.964 153.437 660.01L135.291 640.795L136.143 596.452C138.031 583.304 138.165 569.81 142.979 557.237L145.086 552.784L145.239 552.496C152.663 538.733 164.715 532.654 179.108 528.248Z"/>
	<path fill="#708B93" transform="scale(0.666667 0.666667)" d="M136.143 596.452L136.234 593.25C135.95 592.794 135.67 592.463 135.295 592.071L121.414 576.107C104.258 556.005 89.2219 535.533 77.5508 511.685C65.1817 486.411 57.7635 458.724 53.6784 430.979C49.7777 404.486 48.8528 377.531 52.0328 350.89C54.7334 328.263 60.2161 305.624 67.6868 284.12C81.203 245.216 104.807 209.502 133.533 180.187C140.549 173.027 147.683 165.97 155.433 159.597C180.51 138.971 208.476 122.689 237.625 108.57C237.001 111.078 236.459 113.493 236.187 116.062L236.102 116.818C235.172 125.469 238.456 135.24 243.955 141.92L246.481 144.757C245.48 146.952 246.404 150.341 245.418 152.177C245.285 154.141 245.46 157.694 244.499 159.412C235.425 161.166 226.664 165.916 218.608 170.321C183.252 189.657 151.12 217.996 128.545 251.453C121.559 261.808 115.169 272.752 110.045 284.152C95.9793 315.442 89.8972 349.7 89.4277 383.836C89.1499 404.036 90.7313 424.364 94.6439 444.199C101.4 478.45 115.689 510.514 135.456 539.223C138.589 543.774 141.62 548.481 145.086 552.784L142.979 557.237C138.165 569.81 138.031 583.304 136.143 596.452Z"/>
	<path fill="#324A57" transform="scale(0.666667 0.666667)" d="M243.094 151.238L244.875 151.135L245.418 152.177C245.285 154.141 245.46 157.694 244.499 159.412C235.425 161.166 226.664 165.916 218.608 170.321C183.252 189.657 151.12 217.996 128.545 251.453C121.559 261.808 115.169 272.752 110.045 284.152C95.9793 315.442 89.8972 349.7 89.4277 383.836C89.1499 404.036 90.7313 424.364 94.6439 444.199C101.4 478.45 115.689 510.514 135.456 539.223C138.589 543.774 141.62 548.481 145.086 552.784L142.979 557.237C141.463 556.331 140.426 554.66 139.394 553.253L134.616 546.712L122.954 530.366C113.364 515.678 104.665 498.88 98.6238 482.395C94.9731 472.434 91.7964 462.308 89.5985 451.919C87.334 441.216 86.0839 430.302 84.9647 419.428C82.3034 393.575 82.1418 367.303 86.415 341.592C90.0788 319.548 96.7758 298.336 106.201 278.083C127.595 232.112 164.925 194.99 207.979 169.004C218.995 162.355 231.005 155.656 243.094 151.238Z"/>
	<path fill="#4C6F80" transform="scale(0.666667 0.666667)" d="M243.094 151.238L244.875 151.135L245.418 152.177C245.285 154.141 245.46 157.694 244.499 159.412C244.512 158.704 244.572 158.134 244.212 157.502C243.117 155.574 243.214 153.411 243.094 151.238Z"/>
	<path fill="#708B93" transform="scale(0.666667 0.666667)" d="M465.717 89.8669C471.882 90.3986 478.496 91.9166 484.518 93.3605C495.576 96.0118 506.172 99.2963 516.812 103.298C525.92 106.723 535.143 110.186 543.96 114.308C585.406 133.687 622.205 162.086 651.644 197.094C701.118 255.927 725.69 335.302 719.121 411.797C716.133 446.593 707.273 482.432 690.407 513.159L683.057 526.027C682.716 526.6 680.943 528.998 680.915 529.5C680.905 529.683 681.097 529.819 681.188 529.978C681.783 529.984 682.573 529.89 683.138 530.047C681.949 530.189 679.118 530.933 678.017 530.717C677.453 530.606 676.054 529.492 675.465 529.126L666.949 524.003L649.66 514.739C647.849 513.97 646.096 513.241 644.444 512.155L653.944 494.386C683.192 436.785 684.109 366.271 664.3 305.532C656.37 281.213 643.567 257.313 628.027 237.017C622.784 230.169 617.073 223.829 611.215 217.515C598.321 203.615 584.464 191.146 568.905 180.261C557.22 172.086 544.66 165.02 531.958 158.561L516.074 151.381C515.332 151.089 513.128 149.929 512.438 149.993C512.016 150.032 511.632 150.255 511.23 150.385L511.11 150.311L509.333 143.689C508.573 141.463 507.88 139.243 507.336 136.953C507.07 135.831 507.172 134.595 506.559 133.638L504 134.17C501.42 132.647 498.605 127.849 496.625 125.362C497.287 124.538 498.206 123.513 498.376 122.438C498.766 119.981 497.981 115.901 496.339 114.029C494.592 112.035 491.61 110.891 489.276 109.714C484.478 107.296 478.998 104.948 474.771 101.616C470.882 98.5512 468.317 94.0018 465.717 89.8669Z"/>
	<path fill="#324A57" transform="scale(0.666667 0.666667)" d="M509.333 143.689L509.714 143.892C511.757 144.755 514.798 144.692 517.082 145.417C523.142 147.342 529.33 150.223 535.074 152.983C588.798 178.797 634.489 222.634 659.995 276.75C678.945 316.957 686.692 360.846 683.909 405.106C683.158 417.051 681.955 428.899 679.471 440.625C676.688 453.762 672.567 466.452 667.975 479.051C663.265 491.972 656.922 503.145 649.66 514.739C647.849 513.97 646.096 513.241 644.444 512.155L653.944 494.386C683.192 436.785 684.109 366.271 664.3 305.532C656.37 281.213 643.567 257.313 628.027 237.017C622.784 230.169 617.073 223.829 611.215 217.515C598.321 203.615 584.464 191.146 568.905 180.261C557.22 172.086 544.66 165.02 531.958 158.561L516.074 151.381C515.332 151.089 513.128 149.929 512.438 149.993C512.016 150.032 511.632 150.255 511.23 150.385L511.11 150.311L509.333 143.689Z"/>
	<path fill="#7598A4" transform="scale(0.666667 0.666667)" d="M511.23 150.385C511.632 150.255 512.016 150.032 512.438 149.993C513.128 149.929 515.332 151.089 516.074 151.381L531.958 158.561C544.66 165.02 557.22 172.086 568.905 180.261C584.464 191.146 598.321 203.615 611.215 217.515C617.073 223.829 622.784 230.169 628.027 237.017C643.567 257.313 656.37 281.213 664.3 305.532C684.109 366.271 683.192 436.785 653.944 494.386L644.444 512.155L604.875 494.26C584.46 484.369 565.144 472.048 547.125 458.296C537.831 451.202 528.681 443.96 521.438 434.692C514.528 425.852 508.238 415.915 502.63 406.181C500.778 402.966 499.437 399.3 497.438 396.212L496.935 397.749C496.908 395.527 496.819 393.127 496.249 390.969C495.162 386.857 493.344 383.065 492.056 379.037C490.8 375.111 490.076 370.821 488.415 367.055C487.799 365.659 486.904 364.509 485.944 363.336C484.922 362.732 483.768 359.498 483.306 358.336L481.622 317.869C481.581 316.368 481.086 312.63 482.031 311.631L482.514 310.945C483.781 308.901 484.41 306.104 485.149 303.82L489.927 288.778C499.152 262.162 507.91 235.424 511.653 207.386C513.022 197.126 513.444 186.499 513.397 176.149C513.36 167.856 513.175 158.459 511.23 150.385Z"/>
	<path fill="#324A57" transform="scale(0.666667 0.666667)" d="M496.935 397.749L497.438 396.212C499.437 399.3 500.778 402.966 502.63 406.181C508.238 415.915 514.528 425.852 521.438 434.692C528.681 443.96 537.831 451.202 547.125 458.296C565.144 472.048 584.46 484.369 604.875 494.26L644.444 512.155C646.096 513.241 647.849 513.97 649.66 514.739L666.949 524.003L675.465 529.126C676.054 529.492 677.453 530.606 678.017 530.717C679.118 530.933 681.949 530.189 683.138 530.047L715.595 527.127C706.135 544.589 697.788 562.385 687.106 579.204C674.47 599.101 659.522 617.604 643.256 634.632C628.722 649.846 612.586 664.593 595.125 676.455C584.166 683.9 572.629 690.166 560.728 695.945C545.694 703.245 530.324 709.536 514.312 714.386L472.057 723.998C447.308 727.817 422.514 730.098 397.482 730.933C391.021 731.149 383.466 731.927 377.072 730.932C375.916 731.312 373.395 730.979 372.09 730.987C372.788 728.417 374.9 726.625 376.377 724.469L382.172 715.626L408.157 675.904L449.756 616.249L494.082 547.21L469.279 524.7C471.188 523.252 473.481 522.158 475.584 521.017C480.637 518.276 485.913 515.78 490.778 512.715L462.926 484.946L455.715 476.966C453.78 474.681 451.997 472.185 449.589 470.375C453.706 466.093 457.235 461.092 460.908 456.428L478.694 432.514C483.067 426.309 487.468 420.018 491.032 413.303C493.676 408.322 495.816 403.295 496.935 397.749Z"/>
	<path fill="#7598A4" transform="scale(0.666667 0.666667)" d="M442.544 696.044L441.685 695.426L441.355 680.003L528.303 679.439L528.055 691.936C523.286 693.417 516.954 693.186 511.939 693.549L470.551 695.466L442.544 696.044Z"/>
	<path fill="#112A37" transform="scale(0.666667 0.666667)" d="M496.935 397.749L497.438 396.212C499.437 399.3 500.778 402.966 502.63 406.181C508.238 415.915 514.528 425.852 521.438 434.692C528.681 443.96 537.831 451.202 547.125 458.296C565.144 472.048 584.46 484.369 604.875 494.26L644.444 512.155C646.096 513.241 647.849 513.97 649.66 514.739L666.949 524.003L675.465 529.126C676.054 529.492 677.453 530.606 678.017 530.717C679.118 530.933 681.949 530.189 683.138 530.047L715.595 527.127C706.135 544.589 697.788 562.385 687.106 579.204C674.47 599.101 659.522 617.604 643.256 634.632C628.722 649.846 612.586 664.593 595.125 676.455C584.166 683.9 572.629 690.166 560.728 695.945C545.694 703.245 530.324 709.536 514.312 714.386L472.057 723.998C470.896 723.226 469.931 722.168 468.846 721.282C463.357 716.798 458.622 711.418 453.54 706.486C449.9 702.952 445.904 699.868 442.544 696.044L470.551 695.466L511.939 693.549C516.954 693.186 523.286 693.417 528.055 691.936C528.608 690.739 528.295 686.426 528.844 686.208C531.007 685.347 532.76 683.891 534.698 682.638C539.034 679.835 543.253 676.941 547.284 673.71C553.005 669.124 558.737 664.741 563.441 659.062C577.007 642.687 585.451 622.016 594.621 603.035L604.49 584.791C613.729 568.562 625.054 553.202 642.353 544.913C647.655 542.373 653.403 541.122 659.086 539.764L528.931 483.825L515.121 507.015C512.776 511.105 511.02 516.455 507.675 519.83C505.973 521.548 503.774 522.803 501.742 524.077L492.119 529.891L513.708 543.054C511.818 548.302 508.454 553.643 505.51 558.375L492.316 578.231L464.507 616.618L436.209 653.585L395.632 711.098C391.013 717.547 386.819 724.585 381.837 730.737C380.262 730.776 378.632 730.723 377.072 730.932C375.916 731.312 373.395 730.979 372.09 730.987C372.788 728.417 374.9 726.625 376.377 724.469L382.172 715.626L408.157 675.904L449.756 616.249L494.082 547.21L469.279 524.7C471.188 523.252 473.481 522.158 475.584 521.017C480.637 518.276 485.913 515.78 490.778 512.715L462.926 484.946L455.715 476.966C453.78 474.681 451.997 472.185 449.589 470.375C453.706 466.093 457.235 461.092 460.908 456.428L478.694 432.514C483.067 426.309 487.468 420.018 491.032 413.303C493.676 408.322 495.816 403.295 496.935 397.749Z"/>
	<path fill="#7598A4" transform="scale(0.666667 0.666667)" d="M244.499 159.412C244.409 162.111 243.041 164.9 242.118 167.414C236.637 182.344 235.469 198.726 229.482 213.449C229.199 214.145 229.285 213.863 229.229 214.671C228.138 215.213 226.981 215.72 226.525 216.938C226.009 218.312 226.196 219.854 226.868 221.139L227.504 222.188C227.396 222.831 227.424 223.96 226.863 224.327C226.15 224.795 225.336 224.867 224.512 225.002L228.396 225.059L228.77 225.333L228.567 227.22C228.661 229.022 228.56 231.098 228.981 232.841L229.541 235.561L230.194 235.879C230.691 237.395 232.588 238.398 233.96 239.065C235.858 239.988 237.679 240.705 239.812 240.49C240.337 241.389 240.132 241.639 240.031 242.642L239.799 242.208L239.238 240.938L238.614 241.161C238.144 249.803 239.984 260.719 243.738 268.621C244.578 270.387 245.63 272.663 246.977 274.077L247.259 274.336L247.079 274.82C245.767 276.319 244.552 277.812 242.898 278.949C242.159 281.976 242.401 285.694 242.927 288.75L243.024 289.343L252.508 333.022C253.037 335.89 254.335 339.119 255.832 341.63L256.33 340.679L257.324 341.986L257.812 342.052C258.185 341.058 258.076 340.205 257.998 339.174C257.86 337.209 258.474 335.543 259.471 333.87C263.141 333.37 265.412 333.568 268.902 334.831L269.995 335.28C270.706 337.16 270.587 338.149 269.799 340.085L269.604 340.5C267.992 341.027 266.219 340.524 265.339 342.258C264.825 343.272 263.799 346.418 264.196 347.458L264.714 348.395C264.737 349.892 264.599 351.167 265.551 352.409L265.914 352.604C268.816 355.541 270.895 357.869 272.605 361.642C271.59 365.191 269.951 368.245 268.531 371.625C266.364 376.781 265.612 382.559 265.467 388.107C265.121 392.648 266.101 396.392 269.112 399.901C274.941 406.695 283.999 410.416 292.791 410.912C303.685 411.527 314.752 410.179 325.555 408.865C323.096 411.228 321.472 413.956 319.241 416.462C317.503 418.412 315.537 420.2 313.916 422.247C308.243 429.412 307.695 436.279 307.533 445.034C307.524 445.532 307.657 446.43 307.502 446.875C305.099 450.301 303.35 454.782 301.34 458.521C298.512 461.502 296.006 464.797 292.927 467.522C291.974 468.365 290.981 469.406 289.811 469.932C286.667 472.964 284.007 476.094 281.375 479.578C280.816 479.078 280.728 478.76 280.453 478.079C278.436 478.109 275.554 480.656 273.699 481.749L264.74 486.479L264.678 486.571L248.265 494.724C241.487 497.146 234.926 500.598 228.387 503.631L195.385 519.284L185.447 524.783C184.301 526.588 180.851 527.079 179.108 528.248C164.715 532.654 152.663 538.733 145.239 552.496L145.086 552.784C141.62 548.481 138.589 543.774 135.456 539.223C115.689 510.514 101.4 478.45 94.6439 444.199C90.7313 424.364 89.1499 404.036 89.4277 383.836C89.8972 349.7 95.9793 315.442 110.045 284.152C115.169 272.752 121.559 261.808 128.545 251.453C151.12 217.996 183.252 189.657 218.608 170.321C226.664 165.916 235.425 161.166 244.499 159.412Z"/>
	<path fill="#F1F1ED" transform="scale(0.666667 0.666667)" d="M185.447 524.783L185.526 524.195C189.991 520.081 195.321 517.392 200.625 514.523L225.108 502.405L266.262 483.2C271.338 480.754 276.257 477.946 281.004 474.912C283.354 473.41 285.531 471.594 288.009 470.301C288.638 469.972 289.117 469.941 289.811 469.932C286.667 472.964 284.007 476.094 281.375 479.578C280.816 479.078 280.728 478.76 280.453 478.079C278.436 478.109 275.554 480.656 273.699 481.749L264.74 486.479L264.678 486.571L248.265 494.724C241.487 497.146 234.926 500.598 228.387 503.631L195.385 519.284L185.447 524.783Z"/>
	<path fill="#F1F1ED" transform="scale(0.666667 0.666667)" d="M259.471 333.87C263.141 333.37 265.412 333.568 268.902 334.831L269.995 335.28C270.706 337.16 270.587 338.149 269.799 340.085L269.604 340.5C267.992 341.027 266.219 340.524 265.339 342.258C264.825 343.272 263.799 346.418 264.196 347.458L264.714 348.395C264.737 349.892 264.599 351.167 265.551 352.409L265.914 352.604C268.816 355.541 270.895 357.869 272.605 361.642C271.59 365.191 269.951 368.245 268.531 371.625C266.364 376.781 265.612 382.559 265.467 388.107C263.838 385.352 264.091 381.027 263.954 377.895C263.751 373.257 263.659 368.62 262.897 364.031C261.595 356.186 259.211 348.821 255.832 341.63L256.33 340.679L257.324 341.986L257.812 342.052C258.185 341.058 258.076 340.205 257.998 339.174C257.86 337.209 258.474 335.543 259.471 333.87Z"/>
	<path fill="#101F2A" transform="scale(0.666667 0.666667)" d="M242.898 278.949C237.444 279.008 230.122 279.489 225.29 276.632C221.117 274.164 218.556 269.974 216.497 265.73C212.406 257.299 210.236 248.328 207.895 239.308L204 238.411C203.467 238.216 202.93 237.858 202.719 237.319C202.022 235.539 202.041 232.836 202.688 231.071C204.851 229.049 207.719 228.369 210.513 227.62C215.073 226.397 219.789 225.292 224.512 225.002L228.396 225.059L228.77 225.333L228.567 227.22C228.661 229.022 228.56 231.098 228.981 232.841L229.541 235.561C224.761 235.284 219.537 235.6 214.814 236.466L213.153 237.151C212.786 239.563 213.415 242.351 213.805 244.749C215.14 252.962 217.67 263.724 222.704 270.516C224.957 273.557 227.214 275.356 231.023 275.842C236.087 276.488 240.942 275.837 245.812 274.504C246.669 274.27 246.489 274.095 247.079 274.82C245.767 276.319 244.552 277.812 242.898 278.949Z"/>
	<path fill="#4C6F80" transform="scale(0.666667 0.666667)" d="M214.07 232.064C218.355 228.005 222.959 227.522 228.567 227.22C228.661 229.022 228.56 231.098 228.981 232.841L229.541 235.561C224.761 235.284 219.537 235.6 214.814 236.466C214.482 235.638 214.282 235.507 213.578 234.938C213.546 233.811 213.576 233.118 214.07 232.064Z"/>
	<path fill="#112A37" transform="scale(0.666667 0.666667)" d="M214.814 236.466C214.482 235.638 214.282 235.507 213.578 234.938C213.546 233.811 213.576 233.118 214.07 232.064L214.543 232.8L215.228 232.648C219.551 231.778 224.571 233.581 228.981 232.841L229.541 235.561C224.761 235.284 219.537 235.6 214.814 236.466Z"/>
	<path fill="#7598A4" transform="scale(0.666667 0.666667)" d="M229.541 235.561L230.194 235.879C230.691 237.395 232.588 238.398 233.96 239.065C235.858 239.988 237.679 240.705 239.812 240.49C240.337 241.389 240.132 241.639 240.031 242.642L239.799 242.208L239.238 240.938L238.614 241.161C238.144 249.803 239.984 260.719 243.738 268.621C244.578 270.387 245.63 272.663 246.977 274.077L247.259 274.336L247.079 274.82C246.489 274.095 246.669 274.27 245.812 274.504C240.942 275.837 236.087 276.488 231.023 275.842C227.214 275.356 224.957 273.557 222.704 270.516C217.67 263.724 215.14 252.962 213.805 244.749C213.415 242.351 212.786 239.563 213.153 237.151L214.814 236.466C219.537 235.6 224.761 235.284 229.541 235.561Z"/>
	<path fill="#112A37" transform="scale(0.666667 0.666667)" d="M321.473 55.3475C327.73 53.5513 334.88 52.9702 341.349 52.3561C374.36 49.2225 410.733 53.322 440.082 69.6292C447.807 73.9212 455.057 79.0473 461.327 85.3016C462.742 86.7127 464.565 88.2595 465.717 89.8669C468.317 94.0018 470.882 98.5512 474.771 101.616C478.998 104.948 484.478 107.296 489.276 109.714C491.61 110.891 494.592 112.035 496.339 114.029C497.981 115.901 498.766 119.981 498.376 122.438C498.206 123.513 497.287 124.538 496.625 125.362C498.605 127.849 501.42 132.647 504 134.17L506.559 133.638C507.172 134.595 507.07 135.831 507.336 136.953C507.88 139.243 508.573 141.463 509.333 143.689L511.11 150.311L511.23 150.385C513.175 158.459 513.36 167.856 513.397 176.149C513.444 186.499 513.022 197.126 511.653 207.386C507.91 235.424 499.152 262.162 489.927 288.778L485.149 303.82C484.41 306.104 483.781 308.901 482.514 310.945L482.031 311.631C481.086 312.63 481.581 316.368 481.622 317.869L483.306 358.336C483.768 359.498 484.922 362.732 485.944 363.336C486.904 364.509 487.799 365.659 488.415 367.055C490.076 370.821 490.8 375.111 492.056 379.037C493.344 383.065 495.162 386.857 496.249 390.969C496.819 393.127 496.908 395.527 496.935 397.749C495.816 403.295 493.676 408.322 491.032 413.303C487.468 420.018 483.067 426.309 478.694 432.514L460.908 456.428C457.235 461.092 453.706 466.093 449.589 470.375L445.705 475.09C445.264 475.191 444.362 475.269 444 475.48C442.569 476.312 440.939 478.753 439.603 479.964L416.568 501.29L411.038 506.652C410.115 507.588 409.095 508.984 408.017 509.718C407.523 510.054 407.136 510.127 406.562 510.253C408.039 503.38 409.213 496.448 409.94 489.455C410.222 486.745 410.735 483.301 410.118 480.637C409.7 478.832 408.396 476.979 407.311 475.489C401.588 467.629 393.25 464.179 385.511 458.911L385.52 458.814C382.716 456.753 380.104 452.427 377.901 449.592L364.004 431.368C360.992 427.336 358.159 422.988 354.814 419.228C352.635 416.78 350.102 414.583 347.626 412.441L346.536 412.718L346.292 412.481C344.974 410.819 343.684 410.718 341.909 409.805L337.347 407.201C333.448 407.61 329.359 407.888 325.555 408.865C314.752 410.179 303.685 411.527 292.791 410.912C283.999 410.416 274.941 406.695 269.112 399.901C266.101 396.392 265.121 392.648 265.467 388.107C265.612 382.559 266.364 376.781 268.531 371.625C269.951 368.245 271.59 365.191 272.605 361.642C270.895 357.869 268.816 355.541 265.914 352.604L265.551 352.409C264.599 351.167 264.737 349.892 264.714 348.395L264.196 347.458C263.799 346.418 264.825 343.272 265.339 342.258C266.219 340.524 267.992 341.027 269.604 340.5L269.799 340.085C270.587 338.149 270.706 337.16 269.995 335.28L268.902 334.831C265.412 333.568 263.141 333.37 259.471 333.87C258.474 335.543 257.86 337.209 257.998 339.174C258.076 340.205 258.185 341.058 257.812 342.052L257.324 341.986L256.33 340.679L255.832 341.63C254.335 339.119 253.037 335.89 252.508 333.022L243.024 289.343L242.927 288.75C242.401 285.694 242.159 281.976 242.898 278.949C244.552 277.812 245.767 276.319 247.079 274.82L247.259 274.336L246.977 274.077C245.63 272.663 244.578 270.387 243.738 268.621C239.984 260.719 238.144 249.803 238.614 241.161L239.238 240.938L239.799 242.208L240.031 242.642C240.132 241.639 240.337 241.389 239.812 240.49C237.679 240.705 235.858 239.988 233.96 239.065C232.588 238.398 230.691 237.395 230.194 235.879L229.541 235.561L228.981 232.841C228.56 231.098 228.661 229.022 228.567 227.22L228.77 225.333L228.396 225.059L224.512 225.002C225.336 224.867 226.15 224.795 226.863 224.327C227.424 223.96 227.396 222.831 227.504 222.188L226.868 221.139C226.196 219.854 226.009 218.312 226.525 216.938C226.981 215.72 228.138 215.213 229.229 214.671C229.285 213.863 229.199 214.145 229.482 213.449C235.469 198.726 236.637 182.344 242.118 167.414C243.041 164.9 244.409 162.111 244.499 159.412C245.46 157.694 245.285 154.141 245.418 152.177C246.404 150.341 245.48 146.952 246.481 144.757L243.955 141.92C238.456 135.24 235.172 125.469 236.102 116.818L236.187 116.062C236.459 113.493 237.001 111.078 237.625 108.57C239.103 106.141 238.435 101.618 238.793 98.7062C239.367 94.0446 240.282 88.999 242.43 84.7814C246.688 76.423 253.541 72.7521 262.151 69.9206C262.895 69.293 263.399 68.818 264.351 68.5368C266.72 67.508 268.844 66.0686 271.202 65.049C275.082 63.3719 279.612 63.0655 283.789 62.9251C289.069 62.2324 293.597 62.5099 298.809 60.9661L300.601 60.7669C302.486 60.7738 304.661 60.6077 306.508 60.8902L308.25 60.9033C310.086 59.8508 310.259 59.8648 310.987 57.9045C314.255 56.7246 318.038 55.8403 321.473 55.3475Z"/>
	<path fill="#C88F62" transform="scale(0.666667 0.666667)" d="M324.421 220.289C326.077 221.627 327.294 222.882 328.55 224.608L319.805 223.16L322.528 222.999L323.062 223.006C323.325 221.995 323.886 221.172 324.421 220.289Z"/>
	<path fill="#5C3D38" transform="scale(0.666667 0.666667)" d="M311.388 77.275L311.441 76.5019L312.131 75.9743L313.254 76.4126C314.625 78.6572 315.866 81.0505 316.742 83.5354C316.088 83.4864 315.776 83.5722 315.157 83.7492C313.736 81.8686 312.669 79.3224 311.388 77.275Z"/>
	<path fill="#A77154" transform="scale(0.666667 0.666667)" d="M315.157 83.7492C315.776 83.5722 316.088 83.4864 316.742 83.5354L319.259 89.4848C319.481 89.9983 320.18 91.1906 320.133 91.7245C319.62 92.506 319.161 93.1596 318.849 94.0495L315.157 83.7492Z"/>
	<path fill="#C88F62" transform="scale(0.666667 0.666667)" d="M345.366 73.2112C347.276 74.8754 349.466 76.6275 350.979 78.6758C349.965 78.3353 349.249 78.2899 348.562 77.4338C347.964 77.7347 347.887 77.6585 347.566 78.2878L345.878 78.5259L345.503 79.1064L342.55 74.7658L342.971 74.4629L344.25 75.3547C345.107 74.8289 345.08 74.1414 345.366 73.2112Z"/>
	<path fill="#A77154" transform="scale(0.666667 0.666667)" d="M342.55 74.7658C341.479 74.2252 339.952 71.7836 339.08 70.8194C337.22 68.7648 335.204 66.8551 333.048 65.1154C337.51 67.164 341.618 70.0699 345.366 73.2112C345.08 74.1414 345.107 74.8289 344.25 75.3547L342.971 74.4629L342.55 74.7658Z"/>
	<path fill="#CE9C6F" transform="scale(0.666667 0.666667)" d="M354.499 96.1619L355.13 95.2367L354.941 94.3125L355.312 93.9412L356.851 95.6159L356.811 95.9578C359.026 101.711 363.517 105.425 366.9 110.345C361.71 106.938 357.044 101.861 354.499 96.1619Z"/>
	<path fill="#CE9C6F" transform="scale(0.666667 0.666667)" d="M313.517 221.734C314.128 221.27 314.713 220.844 315.401 220.499C318.367 219.012 321.354 219.2 324.421 220.289C323.886 221.172 323.325 221.995 323.062 223.006L322.528 222.999L319.805 223.16C317.676 223.279 315.504 223.303 313.408 223.711L312.572 223.4C312.93 223.066 313.118 222.86 313.324 222.402L313.473 222.032L313.517 221.734Z"/>
	<path fill="#F1F1ED" transform="scale(0.666667 0.666667)" d="M228.396 225.059C228.488 223.82 228.333 223.096 229.139 222.124C231.807 222.023 238.687 221.433 240.645 223.312C240.996 223.649 241.3 224.223 241.546 224.625L241.125 225.162L234.737 225.371C232.81 225.036 230.721 225.271 228.77 225.333L228.396 225.059Z"/>
	<path fill="#4C6F80" transform="scale(0.666667 0.666667)" d="M284.225 365.438L284.688 365.443C285.061 367.237 281.612 371.691 280.591 373.553C276.897 380.291 276.085 386.414 275.428 393.946C274.299 389.45 273.704 383.873 275.662 379.54C277.918 374.546 281.513 370.223 284.225 365.438Z"/>
	<defs>
		<linearGradient id="gradient_5" gradientUnits="userSpaceOnUse" x1="328.07001" y1="100.152" x2="324.17899" y2="104.905">
			<stop offset="0" stop-color="#BF946F"/>
			<stop offset="1" stop-color="#E0B691"/>
		</linearGradient>
	</defs>
	<path fill="url(#gradient_5)" transform="scale(0.666667 0.666667)" d="M320.133 91.7245C322.644 96.8333 325.156 101.578 328.876 105.941C331.645 109.189 334.885 111.887 338.078 114.692C335.466 113.515 332.683 112.397 330.305 110.781C324.66 106.945 321.663 101.596 319.318 95.3533L318.849 94.0495C319.161 93.1596 319.62 92.506 320.133 91.7245Z"/>
	<path fill="#5C3D38" transform="scale(0.666667 0.666667)" d="M310.987 57.9045C314.255 56.7246 318.038 55.8403 321.473 55.3475C319.746 56.7517 317.882 56.6822 315.783 57.3306C315.147 57.5271 315.567 57.4068 314.778 57.5337C314.158 57.6333 313.874 57.8848 313.394 58.2629L313.43 58.875C314.116 59.3606 314.65 60.0059 315.562 59.625L316.125 59.25L316.787 59.2207C318.165 59.1289 316.924 59.2609 318.188 58.875C318.996 58.6281 319.545 58.8823 320.438 58.5L321.225 58.5938C320.541 58.8418 319.905 58.9749 319.19 59.1035L314.373 60.1852L325.357 64.7028C327.076 65.4796 328.745 67.1597 329.58 68.8477C328.164 68.772 326.701 68.7802 325.326 68.41L324.84 69.0045C324.587 69.0211 322.097 67.1727 321.57 66.8466C316.79 63.8877 311.973 62.1292 306.508 60.8902L308.25 60.9033C310.086 59.8508 310.259 59.8648 310.987 57.9045Z"/>
	<path fill="#324A57" transform="scale(0.666667 0.666667)" d="M404.681 213.278L423.609 213.262L450.562 213.657C455.301 213.806 461.575 213.171 466.046 214.625C464.617 215.645 460.514 215.471 458.633 215.499L434.813 214.826L413.816 214.329C410.974 214.237 407.624 214.461 404.848 213.925L404.422 213.82L404.681 213.278Z"/>
	<path fill="#E9BC8B" transform="scale(0.666667 0.666667)" d="M264.22 100.215C263.185 105.043 261.873 109.028 262.732 114.055C264.145 122.336 268.449 130.237 274.688 135.859C276.907 137.859 279.396 139.37 281.812 141.1L280.688 140.948C279.763 140.67 278.831 140.199 277.955 139.788C270.19 136.143 264.361 129.624 261.48 121.553C258.845 114.168 260.955 106.991 264.22 100.215Z"/>
	<path fill="#6D4138" transform="scale(0.666667 0.666667)" d="M283.789 62.9251C289.069 62.2324 293.597 62.5099 298.809 60.9661C299.061 61.4328 299.459 62.4903 299.812 62.8236C300.941 63.8867 302.807 64.6538 304.083 65.6748C307.57 68.4639 311.41 72.2938 313.254 76.4126L312.131 75.9743L311.441 76.5019L311.388 77.275C306.336 71.8378 300.894 67.8719 293.806 65.4976C292.029 64.9021 289.213 64.6003 287.693 63.7813C286.4 63.0838 285.229 63.0451 283.789 62.9251Z"/>
	<defs>
		<linearGradient id="gradient_6" gradientUnits="userSpaceOnUse" x1="335.60999" y1="66.411201" x2="342.638" y2="106.486">
			<stop offset="0" stop-color="#694840"/>
			<stop offset="1" stop-color="#EAB27E"/>
		</linearGradient>
	</defs>
	<path fill="url(#gradient_6)" transform="scale(0.666667 0.666667)" d="M324.84 69.0045L325.326 68.41C326.701 68.7802 328.164 68.772 329.58 68.8477L335.431 78.8346C340.72 88.8997 345.903 98.0852 354.563 105.673C343.568 100.882 337.176 89.8452 332.784 79.1756C331.531 78.0163 330.782 76.004 329.803 74.5802C328.378 72.5082 326.636 70.7529 324.84 69.0045Z"/>
	<path fill="#E9BC8B" transform="scale(0.666667 0.666667)" d="M322.143 236.759L322.716 236.787C325.204 236.858 328.154 235.878 330.519 235.133L332.366 242.991C325.404 243.226 318.976 243.388 312.036 242.632C311.313 242.285 310.867 242.292 310.095 242.359C308.736 242.479 307.331 242.348 305.992 242.525C304.534 242.718 303.357 243.251 301.849 243.28C303.286 241.88 305.807 239.916 306.678 238.147L306.938 237.582L309.944 237.665L316.125 237.972L316.096 237.537C316.53 237.336 317.574 237.412 318.068 237.375C319.434 237.275 320.787 236.962 322.143 236.759Z"/>
	<path fill="#F1F1ED" transform="scale(0.666667 0.666667)" d="M316.142 228.499C318.809 227.906 321.821 227.631 324.556 227.683C325.185 227.695 326.427 227.566 327 227.754C327.47 227.908 328.101 228.429 328.541 228.699L328.821 229.864C329.039 230.79 329.444 231.78 329.03 232.688C327.063 234.977 324.583 235.254 322.143 236.759C320.787 236.962 319.434 237.275 318.068 237.375C317.574 237.412 316.53 237.336 316.096 237.537C313.469 237.164 308.808 236.97 306.694 235.417C305.702 234.688 305.737 234.597 305.541 233.438C305.834 232.906 306.108 232.375 306.54 231.938C307.656 230.807 310.189 229.202 311.839 229.312L312.051 231.188C312.441 232.628 313.437 232.992 314.606 233.72L315.188 233.567C314.972 232.134 313.547 230.218 313.902 228.938L316.142 228.499Z"/>
	<path fill="#1E4961" transform="scale(0.666667 0.666667)" d="M316.142 228.499C318.809 227.906 321.821 227.631 324.556 227.683C325.185 227.695 326.427 227.566 327 227.754C327.47 227.908 328.101 228.429 328.541 228.699L328.821 229.864L328.466 230.045C327.545 231.731 326.608 232.79 324.857 233.652C322.31 234.906 319.939 235.058 317.286 234.082L315.557 230.474L316.389 229.4L316.142 228.499Z"/>
	<path fill="#E9BC8B" transform="scale(0.666667 0.666667)" d="M345.503 79.1064L345.878 78.5259L347.566 78.2878C347.887 77.6585 347.964 77.7347 348.562 77.4338C349.249 78.2899 349.965 78.3353 350.979 78.6758C358.32 85.8591 363.898 95.7141 367.49 105.238L356.811 95.9578L356.851 95.6159L355.312 93.9412L354.941 94.3125L355.13 95.2367L354.499 96.1619L345.503 79.1064Z"/>
	<defs>
		<linearGradient id="gradient_7" gradientUnits="userSpaceOnUse" x1="242.987" y1="92.8564" x2="311.33701" y2="112.394">
			<stop offset="0" stop-color="#916363"/>
			<stop offset="1" stop-color="#FFE3A1"/>
		</linearGradient>
	</defs>
	<path fill="url(#gradient_7)" transform="scale(0.666667 0.666667)" d="M276.61 84.4263C275.413 83.1414 274.176 81.905 272.77 80.847C268.648 77.7463 263.474 76.953 258.468 77.8518C251.977 79.0173 247.626 84.8808 243.999 89.8912C243.987 89.3913 244.558 88.6204 244.808 88.1637C246.585 84.9095 249.591 80.9228 252.111 78.1875C254.332 75.776 258.129 74.3075 261.375 74.3416C267.236 74.4032 272.947 76.7238 277.004 80.9511C282.776 87.283 283.374 95.4668 285.042 103.505C286.889 112.414 289.997 121.542 296.304 128.324C299.205 131.443 302.542 133.127 305.768 135.721C296.796 132.585 289.081 127.886 284.813 118.993C283.037 115.293 281.901 111.251 281.475 107.17C280.606 98.8584 281.646 91.8018 276.61 84.4263Z"/>
	<path fill="#E9BC8B" transform="scale(0.666667 0.666667)" d="M228.77 225.333C230.721 225.271 232.81 225.036 234.737 225.371L235.232 225.475C239.097 226.228 244.586 224.612 247.435 228.375C248.272 229.48 247.854 232.542 247.82 233.932L250.88 243.89C249.022 243.774 247.287 243.657 245.438 243.98C244.757 244.667 244.745 244.567 243.762 244.585L242.914 244.462L240.031 242.642C240.132 241.639 240.337 241.389 239.812 240.49C237.679 240.705 235.858 239.988 233.96 239.065C232.588 238.398 230.691 237.395 230.194 235.879L229.541 235.561L228.981 232.841C228.56 231.098 228.661 229.022 228.567 227.22L228.77 225.333Z"/>
	<path fill="#101F2A" transform="scale(0.666667 0.666667)" d="M230.194 235.879C235.034 234.494 242.295 231.839 247.065 234.102L247.82 233.932L250.88 243.89C249.022 243.774 247.287 243.657 245.438 243.98C244.757 244.667 244.745 244.567 243.762 244.585L242.914 244.462L240.031 242.642C240.132 241.639 240.337 241.389 239.812 240.49C237.679 240.705 235.858 239.988 233.96 239.065C232.588 238.398 230.691 237.395 230.194 235.879Z"/>
	<path fill="#708B93" transform="scale(0.666667 0.666667)" d="M247.82 233.932L250.88 243.89C249.022 243.774 247.287 243.657 245.438 243.98C244.757 244.667 244.745 244.567 243.762 244.585L242.914 244.462C243.228 244.204 242.992 244.368 243.775 244.195L244.5 244.038C245.441 243.071 245.438 243.17 245.438 241.827L242.308 239.938L242.183 239.062C243.532 238.057 244.898 238.329 246.457 238.552L246.938 238.624L247.688 237.947L247.065 234.102L247.82 233.932Z"/>
	<path fill="#8F624B" transform="scale(0.666667 0.666667)" d="M360.643 60.1875C362.186 59.8364 363.856 59.982 365.344 60.4996C369.212 61.8446 372.707 64.5081 376.022 66.853C382.613 71.5157 390.242 76.6422 393.692 84.2372C396.057 89.4444 395.676 93.6933 393.783 98.9291L392.954 100.493C392.075 100.491 390.16 95.45 389.615 94.3548C383.125 81.3074 372.873 68.1888 360.643 60.1875Z"/>
	<defs>
		<linearGradient id="gradient_8" gradientUnits="userSpaceOnUse" x1="305.181" y1="242.061" x2="295.33801" y2="220.28101">
			<stop offset="0" stop-color="#784E44"/>
			<stop offset="1" stop-color="#956D58"/>
		</linearGradient>
	</defs>
	<path fill="url(#gradient_8)" transform="scale(0.666667 0.666667)" d="M313.473 222.032L313.324 222.402C313.118 222.86 312.93 223.066 312.572 223.4L313.408 223.711C307.309 226.385 302.625 228.927 299.461 235.069C303.006 236.408 306.386 236.679 309.944 237.665L306.938 237.582L306.678 238.147C305.807 239.916 303.286 241.88 301.849 243.28C299.855 244.662 298.016 245.559 295.775 246.457C295.056 244.573 294.746 242.388 294.236 240.426L288.26 238.685C286.92 238.159 286.279 237.605 285.725 236.287C284.434 233.976 285.512 231.263 284.751 228.911C286.013 225.596 287.286 224.583 290.216 222.767L290.696 223.845L292.5 224.694C298.21 226.763 308.128 224.649 313.473 222.032Z"/>
	<path fill="#FEF3DB" transform="scale(0.666667 0.666667)" d="M312.036 242.632C318.976 243.388 325.404 243.226 332.366 242.991C333.053 250.521 333.262 260.744 328.125 267C326.945 268.438 325.698 269.302 324.096 270.207L323.65 270.463L323.38 270.612L322.585 270.829C322.339 270.777 322.046 270.825 321.847 270.672C321.7 270.559 321.739 270.318 321.687 270.14C319.688 263.399 318.475 256.405 316.059 249.787C315.056 247.04 313.727 244.986 312.036 242.632Z"/>
	<path fill="#9ABCC5" transform="scale(0.666667 0.666667)" d="M392.478 385.741C392.122 388.075 393.268 389.57 394.136 391.646L364.444 406.715C358.905 408.57 353.333 411.171 347.626 412.441L346.536 412.718L346.292 412.481C344.974 410.819 343.684 410.718 341.909 409.805L337.347 407.201C357.291 403.332 374.798 395.387 392.478 385.741Z"/>
	<path fill="#8F624B" transform="scale(0.666667 0.666667)" d="M330.284 59.4375C338.353 59.4111 346.789 58.7395 354.376 62.0598C366.028 67.1588 374.358 79.3681 378.852 90.894C380.533 95.2049 383.413 101.911 381.472 106.312C381.228 106.966 381.049 107.233 380.625 107.762C380.043 107.257 380.188 107.493 379.882 106.831C372.339 90.4855 362.416 72.1028 345.268 64.3108C342.339 62.9799 339.387 61.9171 336.275 61.0985C334.474 60.6247 332.348 60.4024 330.661 59.6378L330.284 59.4375Z"/>
	<path fill="#E9BC8B" transform="scale(0.666667 0.666667)" d="M264.351 68.5368L265.009 68.5429C267.17 68.4874 269.582 66.7414 271.875 66.342L272.386 66.2423C277.792 65.3059 283.742 67.7764 288.022 70.9499C303.051 82.0954 304.191 102.562 312.982 117.684C315.082 121.297 317.836 124.453 320.822 127.353C316.631 125.198 312.728 122.694 309.611 119.09C305.148 113.933 302.519 107.281 299.86 101.084C294.794 89.2728 287.928 74.8532 274.537 70.9708C270.844 69.9002 266.919 69.8953 263.112 69.9585L262.151 69.9206C262.895 69.293 263.399 68.818 264.351 68.5368Z"/>
	<path fill="#FEF3DB" transform="scale(0.666667 0.666667)" d="M453.397 228.969C455.299 225.112 459.988 222.407 463.916 221.116C464.851 220.809 465.716 220.614 466.688 220.477L467.279 220.391C471.162 219.883 475.004 220.914 478.071 223.372C484.602 228.607 487.091 237.696 487.769 245.67L487.924 251.185L487.125 253.383C485.783 252.997 485.245 252.6 484.312 251.57C484.278 250.11 484.163 248.761 483.876 247.328L483.79 246.914C483.194 241.171 480.887 235.133 476.291 231.392C474.412 229.861 471.575 228.61 469.116 228.862C465.233 229.259 461.216 231.419 458.838 234.539C455.871 238.432 452.63 246.616 453.281 251.539L453.362 252.051L453.391 253.165C452.327 254.272 451.325 254.133 449.863 254.326C449.309 253.058 449.626 250.422 449.611 248.972C449.779 246.402 450.015 243.83 449.849 241.255C449.274 237.143 453.502 232.938 453.397 228.969Z"/>
	<path fill="#CE9C6F" transform="scale(0.666667 0.666667)" d="M419.862 94.6483L419.937 94.6315C430.627 93.9145 439.998 96.9053 449.55 101.39C453.89 103.428 458.135 105.572 462.077 108.319C449.384 103.625 436.558 102.274 423.091 103.389C409.351 104.269 395.542 108.487 382.212 111.71C393.603 102.745 405.245 96.1762 419.862 94.6483Z"/>
	<path fill="#DBA36C" transform="scale(0.666667 0.666667)" d="M277.112 233.49C276.566 231.025 275.884 228.394 277.292 226.106C280.015 221.682 288.689 220.534 293.399 219.346L290.216 222.767C287.286 224.583 286.013 225.596 284.751 228.911C285.512 231.263 284.434 233.976 285.725 236.287C286.279 237.605 286.92 238.159 288.26 238.685L294.236 240.426C294.746 242.388 295.056 244.573 295.775 246.457C298.016 245.559 299.855 244.662 301.849 243.28C303.357 243.251 304.534 242.718 305.992 242.525C307.331 242.348 308.736 242.479 310.095 242.359C310.867 242.292 311.313 242.285 312.036 242.632C313.727 244.986 315.056 247.04 316.059 249.787C318.475 256.405 319.688 263.399 321.687 270.14C321.739 270.318 321.7 270.559 321.847 270.672C322.046 270.825 322.339 270.777 322.585 270.829C321.791 271.534 319.969 271.833 318.894 272.087C313.019 273.473 301.39 273.515 296.298 270.172C293.3 268.204 291.029 264.985 289.087 262.036C283.603 253.71 279.083 243.298 277.112 233.49Z"/>
	<path fill="#E9BC8B" transform="scale(0.666667 0.666667)" d="M277.112 233.49C276.566 231.025 275.884 228.394 277.292 226.106C280.015 221.682 288.689 220.534 293.399 219.346L290.216 222.767C287.286 224.583 286.013 225.596 284.751 228.911C284.743 228.449 284.583 227.36 284.719 226.969C285.024 226.092 286.123 225.78 286.127 224.719C287.709 223.511 289.224 222.504 290.625 221.062C289.291 220.74 287.756 221.514 286.394 221.796C284.773 222.133 283.203 222.882 281.711 223.586L281.319 223.762C280.443 224.163 280.053 224.405 279.533 225.267L279.844 225.469L280.113 225.258C281.073 224.572 281.627 224.797 282.656 224.531L283.312 224.25L284.434 224.438L284.768 224.962C283.551 225.412 283.051 225.294 281.812 225.383C280.648 225.467 280.12 225.974 279.511 226.9C278.127 229.007 278.859 231.422 277.112 233.49Z"/>
	<path fill="#DBA36C" transform="scale(0.666667 0.666667)" d="M453.397 228.969C453.502 232.938 449.274 237.143 449.849 241.255C450.015 243.83 449.779 246.402 449.611 248.972C449.626 250.422 449.309 253.058 449.863 254.326C451.325 254.133 452.327 254.272 453.391 253.165L453.362 252.051L453.281 251.539C452.63 246.616 455.871 238.432 458.838 234.539C461.216 231.419 465.233 229.259 469.116 228.862C471.575 228.61 474.412 229.861 476.291 231.392C480.887 235.133 483.194 241.171 483.79 246.914L483.876 247.328C484.163 248.761 484.278 250.11 484.312 251.57C485.245 252.6 485.783 252.997 487.125 253.383L487.924 251.185C487.428 264.472 481.86 279.638 472.286 289.067C465.808 294.111 461.82 301.145 454.133 304.953C452.026 305.997 449.562 306.896 447.176 306.678C445.652 306.539 444.044 305.986 442.571 305.562C443.124 307.551 443.612 309.473 443.72 311.546C443.8 313.071 443.571 315.391 443.963 316.782L444.355 327.199C444.076 332.073 443.93 337.046 442.952 341.842C440.541 353.672 432.345 363.642 423.58 371.517C414.783 379.421 404.485 385.962 394.136 391.646C393.268 389.57 392.122 388.075 392.478 385.741C404.07 379.191 415.589 371.537 424.789 361.804C429.763 356.542 433.965 350.511 436.312 343.611C438.708 336.569 438.756 329.387 438.889 322.04L438.951 304.723C437.796 304.859 435.152 305.488 434.064 305.269C432.725 304.999 429.88 302.854 428.544 302.105C426.614 303.859 425.005 306.28 423.338 308.306C423.973 300.1 426.362 292.031 427.449 283.861C428.368 276.956 428.676 270.007 429.028 263.057C429.37 256.33 429.223 248.362 432.054 242.131C435.762 233.969 445.688 231.75 453.397 228.969Z"/>
	<path fill="#C88F62" transform="scale(0.666667 0.666667)" d="M445.437 260.538L446.812 260.211C447.922 258.952 448.717 258.025 449.236 256.414C449.524 260.346 449.939 264.404 449.59 268.337C449.362 270.903 448.632 273.361 448.651 275.947C448.985 276.17 449.332 276.371 449.626 276.645C448.123 277.834 448.081 277.816 447.756 279.696C445.876 279.882 444.043 279.565 442.18 279.325C443.748 275.515 445.327 271.714 446.394 267.725C446.884 265.891 446.901 263.609 447.585 261.906L447.753 261.562L447.368 260.707L445.437 260.538Z"/>
	<path fill="#A77154" transform="scale(0.666667 0.666667)" d="M449.849 241.255C450.015 243.83 449.779 246.402 449.611 248.972C449.164 251.454 449.219 253.902 449.236 256.414C448.717 258.025 447.922 258.952 446.812 260.211L445.437 260.538C442.825 259.945 439.851 259.545 437.988 257.438C437.945 256.472 437.961 255.631 438.175 254.684C439.635 248.206 444.585 244.679 449.849 241.255Z"/>
	<defs>
		<linearGradient id="gradient_9" gradientUnits="userSpaceOnUse" x1="446.69601" y1="265.05399" x2="462.32901" y2="270.77499">
			<stop offset="0" stop-color="#824C42"/>
			<stop offset="1" stop-color="#9F6654"/>
		</linearGradient>
	</defs>
	<path fill="url(#gradient_9)" transform="scale(0.666667 0.666667)" d="M449.611 248.972C449.626 250.422 449.309 253.058 449.863 254.326C451.325 254.133 452.327 254.272 453.391 253.165C454.116 253.71 454.698 254.42 455.438 254.933C459.642 257.855 463.247 259.156 464.034 264.952C464.554 268.779 463.055 271.838 460.804 274.798C457.645 277.5 454.646 280.365 450.193 280.07L447.756 279.696C448.081 277.816 448.123 277.834 449.626 276.645C449.332 276.371 448.985 276.17 448.651 275.947C448.632 273.361 449.362 270.903 449.59 268.337C449.939 264.404 449.524 260.346 449.236 256.414C449.219 253.902 449.164 251.454 449.611 248.972Z"/>
	<path fill="#F9DAA7" transform="scale(0.666667 0.666667)" d="M449.611 248.972C449.626 250.422 449.309 253.058 449.863 254.326L449.89 254.968C450.046 257.671 452.485 259.057 454.176 260.904C456.209 263.125 456.526 266.826 455.559 269.594C455.05 271.052 454.449 272.575 453.394 273.73C452.334 274.89 450.996 275.883 449.626 276.645C449.332 276.371 448.985 276.17 448.651 275.947C448.632 273.361 449.362 270.903 449.59 268.337C449.939 264.404 449.524 260.346 449.236 256.414C449.219 253.902 449.164 251.454 449.611 248.972Z"/>
	<defs>
		<linearGradient id="gradient_10" gradientUnits="userSpaceOnUse" x1="452.60101" y1="247.828" x2="481.069" y2="260.927">
			<stop offset="0" stop-color="#8D594A"/>
			<stop offset="1" stop-color="#A16B4F"/>
		</linearGradient>
	</defs>
	<path fill="url(#gradient_10)" transform="scale(0.666667 0.666667)" d="M453.362 252.051L453.281 251.539C452.63 246.616 455.871 238.432 458.838 234.539C461.216 231.419 465.233 229.259 469.116 228.862C471.575 228.61 474.412 229.861 476.291 231.392C480.887 235.133 483.194 241.171 483.79 246.914C483.767 249.453 483.901 252.129 483.428 254.625C481.876 262.819 477.732 272.584 470.625 277.489C468.051 279.264 464.974 281.052 461.841 281.405L461.343 281.081L460.312 281.505C455.667 283.059 451.217 282.628 446.912 280.312L450.193 280.07C454.646 280.365 457.645 277.5 460.804 274.798C463.055 271.838 464.554 268.779 464.034 264.952C463.247 259.156 459.642 257.855 455.438 254.933C454.698 254.42 454.116 253.71 453.391 253.165L453.362 252.051Z"/>
	<path fill="#F9DAA7" transform="scale(0.666667 0.666667)" d="M453.362 252.051C454.667 252.697 456.062 252.798 457.433 253.247C461.08 254.44 464.248 255.687 467.246 258.137L467.438 257.386L466.357 256.125L466.875 255.758L467.245 255.837C468.213 256.035 468.896 256.155 469.885 255.938C472.327 257.693 471.545 260.131 473.151 262.15C472.041 266.49 469.895 269.515 466.727 272.578C465.897 273.381 464.896 274.548 463.875 275.098C463.538 275.279 463.289 275.322 462.936 275.409L462.471 275.096L461.809 275.4L460.804 274.798C463.055 271.838 464.554 268.779 464.034 264.952C463.247 259.156 459.642 257.855 455.438 254.933C454.698 254.42 454.116 253.71 453.391 253.165L453.362 252.051Z"/>
	<path fill="#C88F62" transform="scale(0.666667 0.666667)" d="M467.246 258.137L467.438 257.386L466.357 256.125L466.875 255.758L467.245 255.837C468.213 256.035 468.896 256.155 469.885 255.938C472.327 257.693 471.545 260.131 473.151 262.15C472.041 266.49 469.895 269.515 466.727 272.578C465.897 273.381 464.896 274.548 463.875 275.098C463.538 275.279 463.289 275.322 462.936 275.409L462.471 275.096C464.662 272.955 467.276 271.097 468.416 268.125C469.403 265.55 469.185 262.431 468.008 259.948L467.428 258.631L467.246 258.137Z"/>
	<path fill="#E9BC8B" transform="scale(0.666667 0.666667)" d="M473.151 262.15C474.034 257.16 472.077 253.54 469.312 249.581C466.346 245.334 462.862 243.221 459.206 239.812C459.922 238.915 460.648 238.816 461.812 238.75C465.752 238.526 469.835 240.4 472.539 243.192C476.312 247.086 478.961 253.589 478.688 259.018C478.369 265.353 474.776 271.222 470.097 275.31C467.67 277.43 464.262 279.701 461.343 281.081L460.312 281.505C455.667 283.059 451.217 282.628 446.912 280.312L450.193 280.07C454.646 280.365 457.645 277.5 460.804 274.798L461.809 275.4L462.471 275.096L462.936 275.409C463.289 275.322 463.538 275.279 463.875 275.098C464.896 274.548 465.897 273.381 466.727 272.578C469.895 269.515 472.041 266.49 473.151 262.15Z"/>
	<path fill="#F9DAA7" transform="scale(0.666667 0.666667)" d="M246.481 144.757L248.01 146.065C255.112 150.611 262.969 152.795 271.285 153.81C272.761 154.124 273.397 154.445 274.688 155.151L275.487 155.366C278.039 156.006 280.77 157.777 283.014 159.119C294.43 165.946 306.153 176.623 312.948 188.149L318.417 198.962C326.171 198.949 334.539 198.322 341.955 200.944C344.091 201.699 345.956 202.876 348.019 203.768C349.218 204.749 351.501 206.307 351.764 207.903C351.835 208.333 351.723 208.301 351.445 208.702C343.215 203.489 334.894 202.411 325.324 202.455C320.711 202.476 315.953 202.752 311.438 203.768L292.113 208.48C287.174 209.673 281.555 210.563 276.953 212.734C275.214 213.555 273.747 214.693 272.766 216.37C271.837 217.96 271.173 220.062 271.688 221.892L272.61 224.408C266.846 224.081 263.243 224.924 257.825 226.78C257.669 223.236 257.945 219.928 255.052 217.371C253.803 216.267 251.93 215.678 250.362 215.192C244.656 213.424 238.943 213.374 233.047 213.683L229.229 214.671C229.285 213.863 229.199 214.145 229.482 213.449C235.469 198.726 236.637 182.344 242.118 167.414C243.041 164.9 244.409 162.111 244.499 159.412C245.46 157.694 245.285 154.141 245.418 152.177C246.404 150.341 245.48 146.952 246.481 144.757Z"/>
	<path fill="#F1F1ED" transform="scale(0.666667 0.666667)" d="M246.481 144.757L248.01 146.065C247.572 150.77 247.41 155.67 246.35 160.28C245.382 164.489 243.706 168.503 242.384 172.6C241.29 175.995 240.462 179.54 239.637 183.012C237.791 190.782 237.037 198.849 235.285 206.666C234.743 209.087 233.682 211.299 233.047 213.683L229.229 214.671C229.285 213.863 229.199 214.145 229.482 213.449C235.469 198.726 236.637 182.344 242.118 167.414C243.041 164.9 244.409 162.111 244.499 159.412C245.46 157.694 245.285 154.141 245.418 152.177C246.404 150.341 245.48 146.952 246.481 144.757Z"/>
	<path fill="#CE9C6F" transform="scale(0.666667 0.666667)" d="M271.285 153.81C278.558 153.842 285.602 153.205 292.713 151.656C301.125 149.824 309.323 146.672 317.693 144.55C333.285 140.599 366.959 133.868 379.8 146.777C381.527 148.513 382.61 150.492 383.505 152.755C382.639 160.445 373.631 179.782 378.389 186.006C380.307 188.516 383.407 190.029 386.073 191.607C394.646 196.681 402.332 203.063 404.681 213.278L404.422 213.82L360.225 212.426L351.756 211.826C351.506 210.705 351.399 209.848 351.445 208.702C351.723 208.301 351.835 208.333 351.764 207.903C351.501 206.307 349.218 204.749 348.019 203.768C345.956 202.876 344.091 201.699 341.955 200.944C334.539 198.322 326.171 198.949 318.417 198.962L312.948 188.149C306.153 176.623 294.43 165.946 283.014 159.119C280.77 157.777 278.039 156.006 275.487 155.366L274.688 155.151C273.397 154.445 272.761 154.124 271.285 153.81Z"/>
	<path fill="#A77154" transform="scale(0.666667 0.666667)" d="M348.019 203.768C350.403 203.389 353.752 205.052 355.632 206.435C357.737 207.983 359.351 209.432 360.075 212.004L360.225 212.426L351.756 211.826C351.506 210.705 351.399 209.848 351.445 208.702C351.723 208.301 351.835 208.333 351.764 207.903C351.501 206.307 349.218 204.749 348.019 203.768Z"/>
	<path fill="#8F624B" transform="scale(0.666667 0.666667)" d="M472.286 289.067C473.875 289.962 474.385 291.684 475.203 293.232C476.789 296.237 478.447 299.065 479.377 302.365C480.149 305.104 480.197 309.498 482.031 311.631C481.086 312.63 481.581 316.368 481.622 317.869L483.306 358.336C483.768 359.498 484.922 362.732 485.944 363.336C486.904 364.509 487.799 365.659 488.415 367.055C490.076 370.821 490.8 375.111 492.056 379.037C493.344 383.065 495.162 386.857 496.249 390.969C496.819 393.127 496.908 395.527 496.935 397.749C495.816 403.295 493.676 408.322 491.032 413.303C487.468 420.018 483.067 426.309 478.694 432.514L460.908 456.428C457.235 461.092 453.706 466.093 449.589 470.375L445.705 475.09C445.264 475.191 444.362 475.269 444 475.48C442.569 476.312 440.939 478.753 439.603 479.964L416.568 501.29L411.038 506.652C410.115 507.588 409.095 508.984 408.017 509.718C407.523 510.054 407.136 510.127 406.562 510.253C408.039 503.38 409.213 496.448 409.94 489.455C410.222 486.745 410.735 483.301 410.118 480.637C409.7 478.832 408.396 476.979 407.311 475.489C401.588 467.629 393.25 464.179 385.511 458.911L385.52 458.814C382.716 456.753 380.104 452.427 377.901 449.592L364.004 431.368C360.992 427.336 358.159 422.988 354.814 419.228C352.635 416.78 350.102 414.583 347.626 412.441C353.333 411.171 358.905 408.57 364.444 406.715L394.136 391.646C404.485 385.962 414.783 379.421 423.58 371.517C432.345 363.642 440.541 353.672 442.952 341.842C443.93 337.046 444.076 332.073 444.355 327.199L443.963 316.782C443.571 315.391 443.8 313.071 443.72 311.546C443.612 309.473 443.124 307.551 442.571 305.562C444.044 305.986 445.652 306.539 447.176 306.678C449.562 306.896 452.026 305.997 454.133 304.953C461.82 301.145 465.808 294.111 472.286 289.067Z"/>
	<path fill="#9B9A91" transform="scale(0.666667 0.666667)" d="M483.306 358.336C483.768 359.498 484.922 362.732 485.944 363.336C485.762 367.148 485.874 371.464 484.135 374.943C483.736 372.428 483.877 369.853 483.781 367.312L483.306 358.336Z"/>
	<defs>
		<linearGradient id="gradient_11" gradientUnits="userSpaceOnUse" x1="396.59399" y1="358.12601" x2="435.43399" y2="379.45499">
			<stop offset="0" stop-color="#C18F66"/>
			<stop offset="1" stop-color="#E5B180"/>
		</linearGradient>
	</defs>
	<path fill="url(#gradient_11)" transform="scale(0.666667 0.666667)" d="M449.299 331.25C449.589 328.784 449.096 323.749 451.125 322.292C451.599 322.383 452.195 322.328 452.475 322.769C453.141 323.823 453.016 326.261 453.06 327.512C453.363 336.158 452.696 344.826 450.037 353.105C445.201 368.162 432.112 378.721 419.544 387.373C413.592 391.47 407.364 395.558 400.923 398.845C397.265 400.712 393.446 402.042 389.625 403.521C382.351 406.335 375.583 409.018 367.688 409.36L367.283 408.885C367.974 408.156 368.512 407.912 369.414 407.526C374.541 406.473 379.496 404.8 384.418 403.045C400.527 397.303 416.745 388.414 429.391 376.769C437.563 369.244 444.108 360.53 447.018 349.675C448.603 343.766 449.065 337.34 449.299 331.25Z"/>
	<defs>
		<linearGradient id="gradient_12" gradientUnits="userSpaceOnUse" x1="419.91901" y1="384.035" x2="396.47198" y2="349.798">
			<stop offset="0" stop-color="#052132"/>
			<stop offset="1" stop-color="#493A35"/>
		</linearGradient>
	</defs>
	<path fill="url(#gradient_12)" transform="scale(0.666667 0.666667)" d="M443.963 316.782C445.184 317.55 445.405 317.944 446 319.22C447.245 321.893 449.206 323.638 449.389 326.762C449.258 328.284 449.193 329.725 449.299 331.25C449.065 337.34 448.603 343.766 447.018 349.675C444.108 360.53 437.563 369.244 429.391 376.769C416.745 388.414 400.527 397.303 384.418 403.045C379.496 404.8 374.541 406.473 369.414 407.526C367.449 407.711 366.09 407.886 364.444 406.715L394.136 391.646C404.485 385.962 414.783 379.421 423.58 371.517C432.345 363.642 440.541 353.672 442.952 341.842C443.93 337.046 444.076 332.073 444.355 327.199L443.963 316.782Z"/>
	<path fill="#9ABCC5" transform="scale(0.666667 0.666667)" d="M485.944 363.336C486.904 364.509 487.799 365.659 488.415 367.055C490.076 370.821 490.8 375.111 492.056 379.037C493.344 383.065 495.162 386.857 496.249 390.969C496.819 393.127 496.908 395.527 496.935 397.749C495.816 403.295 493.676 408.322 491.032 413.303C487.468 420.018 483.067 426.309 478.694 432.514L460.908 456.428C457.235 461.092 453.706 466.093 449.589 470.375L445.705 475.09C445.264 475.191 444.362 475.269 444 475.48C442.569 476.312 440.939 478.753 439.603 479.964L416.568 501.29L411.038 506.652C410.115 507.588 409.095 508.984 408.017 509.718C407.523 510.054 407.136 510.127 406.562 510.253C408.039 503.38 409.213 496.448 409.94 489.455C410.222 486.745 410.735 483.301 410.118 480.637C409.7 478.832 408.396 476.979 407.311 475.489C401.588 467.629 393.25 464.179 385.511 458.911L385.52 458.814C388.496 457.351 391.213 455.191 393.938 453.3L408.606 443.041L439.815 421.511C447.536 415.745 454.807 409.444 461.912 402.94C470.518 395.064 479.814 385.96 484.135 374.943C485.874 371.464 485.762 367.148 485.944 363.336Z"/>
	<path fill="#CE9C6F" transform="scale(0.666667 0.666667)" d="M337.91 240.981L337.61 230.661L405.156 229.165C407.614 239.031 407.357 248.226 406.636 258.257C406.073 266.091 405.401 274.386 401.249 281.237C397.092 288.095 391.965 294.375 387.514 301.047C372.886 322.968 346.382 366.201 319.867 372.631C318.744 372.903 316.215 373.683 315.165 373.429C305.308 374.379 297.068 371.309 288.885 366C287.457 365.074 286.303 364.224 285.948 362.525L285.559 361.5C285.131 360.697 285.187 360.72 285.184 359.812C284.671 359.32 284.13 358.879 283.791 358.244L283.659 357.938C282.647 357.538 282.123 356.625 281.28 355.981C280.104 355.084 278.653 354.285 277.252 353.794L276.188 353.441C275.444 353.144 275.049 353.228 274.312 353.066C271.608 352.471 268.732 352.041 265.914 352.604L265.551 352.409C264.599 351.167 264.737 349.892 264.714 348.395L264.196 347.458C263.799 346.418 264.825 343.272 265.339 342.258C266.219 340.524 267.992 341.027 269.604 340.5L269.799 340.085C270.587 338.149 270.706 337.16 269.995 335.28L268.902 334.831C265.412 333.568 263.141 333.37 259.471 333.87C258.474 335.543 257.86 337.209 257.998 339.174C258.076 340.205 258.185 341.058 257.812 342.052L257.324 341.986L256.33 340.679L255.832 341.63C254.335 339.119 253.037 335.89 252.508 333.022L243.024 289.343L242.927 288.75C242.401 285.694 242.159 281.976 242.898 278.949C244.552 277.812 245.767 276.319 247.079 274.82L247.259 274.336L246.977 274.077C245.63 272.663 244.578 270.387 243.738 268.621C239.984 260.719 238.144 249.803 238.614 241.161L239.238 240.938L239.799 242.208L240.031 242.642L242.914 244.462L243.762 244.585C244.745 244.567 244.757 244.667 245.438 243.98C247.287 243.657 249.022 243.774 250.88 243.89C252.136 246.432 253.51 248.783 253.856 251.625L254.005 252.464L254.105 253.021L254.49 252.987L259.196 236.906C259.369 235.119 259.787 233.626 261.267 232.475C262.565 231.466 264.415 231.224 265.989 230.904C268.713 235.592 270.365 240.682 272.544 245.623C277.302 253.711 281.971 262.738 288.57 269.499C290.668 271.648 293.056 273.704 295.875 274.832C296.206 274.964 298.73 275.785 298.78 275.885C305.02 276.654 311.45 277.113 317.712 276.196C322.404 275.509 326.829 274.332 330.323 270.852C337.783 263.42 337.817 250.723 337.91 240.981Z"/>
	<path fill="#F9DAA7" transform="scale(0.666667 0.666667)" d="M288.115 356.579L288.608 356.643L288.681 356.97C289.772 361.34 296.354 365.771 300.154 367.918C304.719 370.496 309.253 371.736 314.444 372.295L315.165 373.429C305.308 374.379 297.068 371.309 288.885 366C287.457 365.074 286.303 364.224 285.948 362.525C287.029 360.604 288.2 358.868 288.115 356.579Z"/>
	<path fill="#1E4961" transform="scale(0.666667 0.666667)" d="M264.385 301.467L264.606 301.496C265.098 302.272 264.943 302.299 265.877 302.623C266.091 303.186 266.061 302.89 265.938 303.512C266.866 304.063 267.377 304.502 268.125 305.294L268.496 305.654C268.861 306.04 268.971 306.373 269.133 306.865C270.888 310.578 272.375 314.06 272.467 318.237C271.359 320.05 269.943 321.185 268.766 322.821L267.178 321.566C265.509 320.598 263.276 319.409 262.039 317.939L264.385 301.467Z"/>
	<path fill="#101F2A" transform="scale(0.666667 0.666667)" d="M265.938 303.512C266.866 304.063 267.377 304.502 268.125 305.294L268.496 305.654C268.861 306.04 268.971 306.373 269.133 306.865C270.888 310.578 272.375 314.06 272.467 318.237C271.359 320.05 269.943 321.185 268.766 322.821L267.178 321.566L267.453 320.716C267.618 317.976 267.289 315.239 267.577 312.455C267.808 310.228 268.121 306.933 266.622 305.124C266.15 304.554 266.254 304.824 266.046 304.041L265.938 303.512Z"/>
	<path fill="#101F2A" transform="scale(0.666667 0.666667)" d="M272.471 345.41C277.416 345.519 281.044 345.415 284.644 349.277C286.289 351.041 286.917 352.821 287.488 355.086C287.635 355.669 287.799 356.071 288.115 356.579C288.2 358.868 287.029 360.604 285.948 362.525L285.559 361.5C285.131 360.697 285.187 360.72 285.184 359.812C284.671 359.32 284.13 358.879 283.791 358.244L283.659 357.938C282.647 357.538 282.123 356.625 281.28 355.981C280.104 355.084 278.653 354.285 277.252 353.794L276.188 353.441C275.444 353.144 275.049 353.228 274.312 353.066C271.608 352.471 268.732 352.041 265.914 352.604L265.551 352.409C264.599 351.167 264.737 349.892 264.714 348.395L266.505 346.83C268.522 346.062 270.347 345.703 272.471 345.41Z"/>
	<path fill="#C88F62" transform="scale(0.666667 0.666667)" d="M252.508 333.022C253.437 332.496 253.553 331.713 253.88 330.752L254.627 328.877C254.858 328.23 255.083 327.966 255.377 327.377C255.623 326.884 255.567 326.62 255.918 326.086C257.384 323.855 259.25 320.679 261.108 318.822L262.039 317.939C263.276 319.409 265.509 320.598 267.178 321.566L268.766 322.821C267.368 323.426 266.121 323.318 264.621 323.276L264.041 323.649L268.799 323.812L269.062 324.248L268.186 325.162L268.316 326.438C269.046 326.689 268.898 326.738 269.718 326.498C270.518 326.265 271.28 326.166 272.106 326.074C271.455 327.237 270.701 328.41 270.3 329.683C270.099 331.324 269.323 331.131 268.965 332.25C268.77 332.861 268.919 334.145 268.902 334.831C265.412 333.568 263.141 333.37 259.471 333.87C258.474 335.543 257.86 337.209 257.998 339.174C258.076 340.205 258.185 341.058 257.812 342.052L257.324 341.986L256.33 340.679L255.832 341.63C254.335 339.119 253.037 335.89 252.508 333.022Z"/>
	<path fill="#E9BC8B" transform="scale(0.666667 0.666667)" d="M268.186 325.162L268.316 326.438C269.046 326.689 268.898 326.738 269.718 326.498C270.518 326.265 271.28 326.166 272.106 326.074C271.455 327.237 270.701 328.41 270.3 329.683C268.96 330.147 267.277 329.412 265.946 329.028L265.365 328.672L266.345 326.418C266.886 325.395 267.099 325.505 268.186 325.162Z"/>
	<path fill="#A77154" transform="scale(0.666667 0.666667)" d="M270.3 329.683C270.099 331.324 269.323 331.131 268.965 332.25C268.77 332.861 268.919 334.145 268.902 334.831C265.412 333.568 263.141 333.37 259.471 333.87L259.25 333.361L259.688 332.634C260.714 331.954 261.569 332.121 262.688 331.821C264.393 331.365 265.168 330.574 265.946 329.028C267.277 329.412 268.96 330.147 270.3 329.683Z"/>
	<path fill="#FEF3DB" transform="scale(0.666667 0.666667)" d="M252.508 333.022C253.437 332.496 253.553 331.713 253.88 330.752L254.627 328.877C254.858 328.23 255.083 327.966 255.377 327.377C255.623 326.884 255.567 326.62 255.918 326.086C257.384 323.855 259.25 320.679 261.108 318.822L262.039 317.939C263.276 319.409 265.509 320.598 267.178 321.566L268.766 322.821C267.368 323.426 266.121 323.318 264.621 323.276L264.041 323.649C260.835 326.285 258.384 330.444 256.958 334.312L256.797 334.736C256.331 336.057 256.283 338.412 256.929 339.661C257.224 340.231 257.075 340.085 257.518 340.312L257.998 339.174C258.076 340.205 258.185 341.058 257.812 342.052L257.324 341.986L256.33 340.679L255.832 341.63C254.335 339.119 253.037 335.89 252.508 333.022Z"/>
	<path fill="#F9DAA7" transform="scale(0.666667 0.666667)" d="M302.601 333.753L303.243 334.388C300.118 338.161 290.598 341.727 285.791 342.338C282.452 342.763 279.04 341.949 275.724 342.339C275.154 342.406 274.674 342.346 274.115 342.259C272.713 342.042 272.101 342.362 270.948 343.047C270.502 343.313 270.136 343.42 269.625 343.496L269.06 344.273C269.504 344.912 269.242 344.803 269.924 344.914C271.035 345.095 271.421 344.867 272.438 344.625L275.062 344.625C274.222 344.99 273.355 345.181 272.471 345.41C270.347 345.703 268.522 346.062 266.505 346.83L264.714 348.395L264.196 347.458C263.799 346.418 264.825 343.272 265.339 342.258C266.219 340.524 267.992 341.027 269.604 340.5L269.799 340.085C270.587 338.149 270.706 337.16 269.995 335.28C271.737 335.418 273.253 335.34 274.979 335.069C276.599 333.194 292.737 335.954 296.062 335.72C298.211 335.569 300.573 334.469 302.601 333.753Z"/>
	<path fill="#FEF3DB" transform="scale(0.666667 0.666667)" d="M269.995 335.28C271.737 335.418 273.253 335.34 274.979 335.069L275.856 335.745C275.792 336.458 275.763 337.271 275.226 337.819C275.005 338.046 274.666 338.227 274.394 338.388L274.481 339.136C274.522 339.607 274.488 340.033 274.43 340.5L274.688 341.101L268.411 341.438C268.258 343.253 267.434 343.036 266.723 344.438C266.535 344.808 266.552 346.376 266.505 346.83L264.714 348.395L264.196 347.458C263.799 346.418 264.825 343.272 265.339 342.258C266.219 340.524 267.992 341.027 269.604 340.5L269.799 340.085C270.587 338.149 270.706 337.16 269.995 335.28Z"/>
	<path fill="#8F624B" transform="scale(0.666667 0.666667)" d="M272.106 326.074L274.843 323.11L299.561 331.613L300.035 331.857L302.681 332.922L302.601 333.753C300.573 334.469 298.211 335.569 296.062 335.72C292.737 335.954 276.599 333.194 274.979 335.069C273.253 335.34 271.737 335.418 269.995 335.28L268.902 334.831C268.919 334.145 268.77 332.861 268.965 332.25C269.323 331.131 270.099 331.324 270.3 329.683C270.701 328.41 271.455 327.237 272.106 326.074Z"/>
	<path fill="#F9DAA7" transform="scale(0.666667 0.666667)" d="M337.91 240.981C339.673 241.337 341.511 243.296 342.938 244.381C346.604 247.171 351.132 249.879 353.729 253.763C355.217 255.989 355.105 257.506 354.608 260.062C353.347 266.547 347.509 271.587 342.198 274.956C332.581 281.057 319.757 282.367 308.767 279.843C305.879 279.18 303.233 278.294 300.441 277.344C299.579 277.051 299.225 276.654 298.78 275.885C305.02 276.654 311.45 277.113 317.712 276.196C322.404 275.509 326.829 274.332 330.323 270.852C337.783 263.42 337.817 250.723 337.91 240.981Z"/>
	<path fill="#324A57" transform="scale(0.666667 0.666667)" d="M264.606 301.496C267.103 300.434 271.155 300.494 273.919 300.265C275.341 300.147 276.715 300.244 277.87 299.31L278.736 299.717L296.215 312.098C303.379 316.967 311.927 322.066 317.985 328.26C320.087 330.409 321.682 332.795 322.789 335.591C323.41 338.565 323.394 341.426 323.332 344.444C320.943 340.96 318.378 337.35 315.172 334.567C310.917 330.872 305.399 328.672 300.017 327.193L279.662 319.463C278.439 319 274.936 318.098 274.142 317.29C273.854 316.996 273.558 315.922 273.379 315.47C272.352 312.877 271.91 309.743 270.35 307.411C269.987 306.867 269.733 306.98 269.133 306.865C268.971 306.373 268.861 306.04 268.496 305.654L268.125 305.294C267.377 304.502 266.866 304.063 265.938 303.512C266.061 302.89 266.091 303.186 265.877 302.623C264.943 302.299 265.098 302.272 264.606 301.496Z"/>
	<path fill="#F9DAA7" transform="scale(0.666667 0.666667)" d="M291.167 295.23L291.346 294.738C292.476 291.555 292.588 288.528 292.789 285.188C295.252 285.873 297.309 286.696 299.494 288.062C306.855 292.662 313.247 298.9 319.875 304.467C324.863 308.656 330.265 312.521 334.974 317.019C331.339 322.084 326.92 326.344 324.462 332.179C323.966 333.355 323.64 334.627 322.789 335.591C321.682 332.795 320.087 330.409 317.985 328.26C311.927 322.066 303.379 316.967 296.215 312.098L278.736 299.717L279.75 299.344C281.616 300.227 284.654 301.375 286.722 300.649C288.912 299.881 290.377 297.256 291.167 295.23Z"/>
	<defs>
		<linearGradient id="gradient_13" gradientUnits="userSpaceOnUse" x1="258.09601" y1="231.737" x2="257.98001" y2="292.888">
			<stop offset="0" stop-color="#EEC085"/>
			<stop offset="1" stop-color="#FEE0AA"/>
		</linearGradient>
	</defs>
	<path fill="url(#gradient_13)" transform="scale(0.666667 0.666667)" d="M259.196 236.906C259.369 235.119 259.787 233.626 261.267 232.475C262.565 231.466 264.415 231.224 265.989 230.904C268.713 235.592 270.365 240.682 272.544 245.623C265.227 254.48 260.924 265.738 259.41 277.041L272.804 279.53C277.614 279.312 283.403 281.733 287.112 284.61C288.786 286.007 289.722 287.52 290.804 289.385C290.835 290.978 291.04 292.806 290.691 294.357L291.167 295.23C290.377 297.256 288.912 299.881 286.722 300.649C284.654 301.375 281.616 300.227 279.75 299.344L278.736 299.717L277.87 299.31C276.715 300.244 275.341 300.147 273.919 300.265C271.155 300.494 267.103 300.434 264.606 301.496L264.385 301.467L262.039 317.939L261.108 318.822C259.25 320.679 257.384 323.855 255.918 326.086C255.567 326.62 255.623 326.884 255.377 327.377C255.083 327.966 254.858 328.23 254.627 328.877L253.88 330.752C253.553 331.713 253.437 332.496 252.508 333.022L243.024 289.343L242.927 288.75C242.401 285.694 242.159 281.976 242.898 278.949C244.552 277.812 245.767 276.319 247.079 274.82L247.259 274.336L246.977 274.077C245.63 272.663 244.578 270.387 243.738 268.621C239.984 260.719 238.144 249.803 238.614 241.161L239.238 240.938L239.799 242.208L240.031 242.642L242.914 244.462L243.762 244.585C244.745 244.567 244.757 244.667 245.438 243.98C247.287 243.657 249.022 243.774 250.88 243.89C252.136 246.432 253.51 248.783 253.856 251.625L254.005 252.464L254.105 253.021L254.49 252.987L259.196 236.906Z"/>
	<path fill="#FEF3DB" transform="scale(0.666667 0.666667)" d="M259.196 236.906L260.135 237.75C260.199 246.92 255.87 256.655 252.402 265.01L252.203 265.143L250.665 265.31L254.49 252.987L259.196 236.906Z"/>
	<path fill="#DBA36C" transform="scale(0.666667 0.666667)" d="M272.804 279.53C277.614 279.312 283.403 281.733 287.112 284.61C288.786 286.007 289.722 287.52 290.804 289.385C290.835 290.978 291.04 292.806 290.691 294.357L291.167 295.23C290.377 297.256 288.912 299.881 286.722 300.649C284.654 301.375 281.616 300.227 279.75 299.344L278.736 299.717L277.87 299.31C276.715 300.244 275.341 300.147 273.919 300.265C271.155 300.494 267.103 300.434 264.606 301.496L264.385 301.467L259.518 299.782L250.305 295.085L249.75 294.733C248.157 293.739 246.924 292.864 245.679 291.444C247.132 291.475 247.746 292.123 249 292.816C249.313 292.989 250.879 293.937 251.176 293.925C252.914 293.85 260.957 286.491 263.127 285.079C265.288 283.672 267.439 282.742 269.887 281.99C271.252 281.338 271.878 280.716 272.804 279.53Z"/>
	<path fill="#E9BC8B" transform="scale(0.666667 0.666667)" d="M272.804 279.53C277.614 279.312 283.403 281.733 287.112 284.61L286.857 284.66C285.852 284.913 285.549 284.653 284.625 284.309C279.708 282.477 275.11 282.104 269.887 281.99C271.252 281.338 271.878 280.716 272.804 279.53Z"/>
	<path fill="#101F2A" transform="scale(0.666667 0.666667)" d="M261.035 298.075C260.565 297.321 260.423 296.954 260.421 296.062C261.386 294.357 262.597 293.709 264.447 293.129C268.867 291.744 273.923 291.577 278.48 292.262C279.572 292.427 281.082 292.592 282 293.233C283.125 294.019 282.98 294.456 283.13 295.688C282.609 296.952 282.572 296.856 281.316 297.439C279.805 297.87 278.989 298.192 277.87 299.31C276.715 300.244 275.341 300.147 273.919 300.265C271.155 300.494 267.103 300.434 264.606 301.496L264.385 301.467L259.518 299.782C260.081 299.244 260.552 298.685 261.035 298.075Z"/>
	<path fill="#A77154" transform="scale(0.666667 0.666667)" d="M261.035 298.075L262.312 298.683C264.233 298.618 266.565 296.421 268.548 295.763C273.086 294.256 277.158 295.43 281.316 297.439C279.805 297.87 278.989 298.192 277.87 299.31C276.715 300.244 275.341 300.147 273.919 300.265C271.155 300.494 267.103 300.434 264.606 301.496L264.385 301.467L259.518 299.782C260.081 299.244 260.552 298.685 261.035 298.075Z"/>
	<path fill="#F1F1ED" transform="scale(0.666667 0.666667)" d="M247.079 274.82L247.259 274.336L246.977 274.077C245.63 272.663 244.578 270.387 243.738 268.621C239.984 260.719 238.144 249.803 238.614 241.161L239.238 240.938L239.799 242.208L240.031 242.642L242.914 244.462L243.762 244.585C244.745 244.567 244.757 244.667 245.438 243.98C247.287 243.657 249.022 243.774 250.88 243.89C252.136 246.432 253.51 248.783 253.856 251.625L254.005 252.464L254.105 253.021L254.49 252.987L250.665 265.31L252.203 265.143C251.161 268.449 250.23 273.195 247.935 275.793C245.14 278.956 244.088 284.267 244.493 288.375C244.613 289.588 244.863 290.484 245.649 291.439L245.679 291.444C246.924 292.864 248.157 293.739 249.75 294.733L250.305 295.085L259.518 299.782L264.385 301.467L262.039 317.939L261.108 318.822C259.25 320.679 257.384 323.855 255.918 326.086C255.567 326.62 255.623 326.884 255.377 327.377C255.083 327.966 254.858 328.23 254.627 328.877L253.88 330.752C253.553 331.713 253.437 332.496 252.508 333.022L243.024 289.343L242.927 288.75C242.401 285.694 242.159 281.976 242.898 278.949C244.552 277.812 245.767 276.319 247.079 274.82Z"/>
	<path fill="#7598A4" transform="scale(0.666667 0.666667)" d="M243.762 244.585C244.745 244.567 244.757 244.667 245.438 243.98C247.287 243.657 249.022 243.774 250.88 243.89C252.136 246.432 253.51 248.783 253.856 251.625L254.005 252.464L254.105 253.021L254.49 252.987L250.665 265.31L249.143 270.449C245.293 261.954 244.276 254.629 244.74 245.321L243.762 244.585Z"/>
</svg>
