<?xml version="1.0" standalone="no"?>
<!DOCTYPE svg PUBLIC "-//W3C//DTD SVG 20010904//EN"
 "http://www.w3.org/TR/2001/REC-SVG-20010904/DTD/svg10.dtd">
<svg version="1.0" xmlns="http://www.w3.org/2000/svg"
 width="1081.000000pt" height="1081.000000pt" viewBox="0 0 1081.000000 1081.000000"
 preserveAspectRatio="xMidYMid meet">

<g transform="translate(0.000000,1081.000000) scale(0.100000,-0.100000)"
fill="#000000" stroke="none">
<path d="M5609 8730 c-143 -24 -298 -85 -422 -166 -56 -36 -349 -323 -1275
-1248 -662 -661 -1225 -1230 -1252 -1266 -96 -129 -160 -268 -196 -425 -29
-124 -25 -349 9 -476 35 -133 78 -232 149 -341 55 -84 183 -215 1267 -1299
1308 -1308 1277 -1280 1466 -1358 149 -62 253 -83 415 -84 244 -2 440 58 630
191 36 25 253 232 483 461 l417 416 -377 377 -378 378 786 787 c432 434 807
817 833 852 26 36 67 106 91 155 179 371 139 791 -107 1126 -58 79 -1650 1668
-1728 1725 -122 89 -290 161 -440 189 -86 17 -289 20 -371 6z m923 -1817 c412
-412 748 -752 748 -757 0 -5 -338 -346 -751 -759 l-750 -751 378 -378 378
-378 -375 -375 -375 -375 -1133 1132 -1132 1133 1127 1127 c621 621 1130 1128
1133 1128 3 0 341 -336 752 -747z"/>
</g>
</svg>
